<svg id="Capa_1" data-name="Capa 1" xmlns="http://www.w3.org/2000/svg" xmlns:xlink="http://www.w3.org/1999/xlink"
  viewBox="0 0 172 151">
  <defs>
    <style>
      .cls-1 {
        fill: none;
      }

      .cls-2 {
        clip-path: url(#clip-path);
      }

      .cls-3 {
        clip-path: url(#clip-path-2);
      }

      .cls-4 {
        clip-path: url(#clip-path-3);
      }

      .cls-5 {
        clip-path: url(#clip-path-4);
      }
    </style>
    <clipPath id="clip-path">
      <rect class="cls-1" x="42.77" y="94.39" width="77.33" height="23.81" />
    </clipPath>
    <clipPath id="clip-path-2">
      <rect class="cls-1" x="40.6" y="82.39" width="8.83" height="13.33" />
    </clipPath>
    <clipPath id="clip-path-3">
      <rect class="cls-1" x="88.1" y="26.19" width="10.67" height="13.53" />
    </clipPath>
    <clipPath id="clip-path-4">
      <rect class="cls-1" x="110.77" y="87.72" width="11.83" height="10.67" />
    </clipPath>
  </defs>
  <g class="cls-2">
    <path
      d="M49.59,95.93l-1.42.57a12.26,12.26,0,0,0-3.05,1.92c-.07.06-.2.14-.28.2a2.37,2.37,0,0,0-.69,2,4.06,4.06,0,0,0,1.15,2.14,4.61,4.61,0,0,0,.38.28s0,0,.14.17a15.75,15.75,0,0,0,3.61,2.34A36,36,0,0,0,62.77,109c.82,0,1.68,0,2.51,0,.24-.28.46-.56.7-.83a9.33,9.33,0,0,1,3.09-2.3,2,2,0,0,1,1-.22s.14.1.06.14c0,.19-.18.15-.33.22a10.86,10.86,0,0,0-2.43,1.7,6.94,6.94,0,0,0-1.11,1.3c1.64,0,3.29,0,4.93,0,.08,0,.13.07.2.07,2.67.09,5.38.12,8,0,6.19-.27,12.35-.82,18.44-1.61,4.34-.56,8.72-1.26,13-2.16a13.48,13.48,0,0,0,4.71-1.59,5.18,5.18,0,0,0,2.16-2.31,2.17,2.17,0,0,0,0-.26s.07-.08.07-.15-.06-.11-.07-.15a2.09,2.09,0,0,0,0-.26,1.33,1.33,0,0,0-.31-.46s0-.12,0-.14-.1,0-.15,0c-1.65-1.47-3.81-1.82-5.89-2.14-.18,0-.46-.12-.64-.13s-.36,0-.48,0a1,1,0,0,1-.18-.17.58.58,0,0,1,.11-.18.8.8,0,0,1,.2-.07,5.35,5.35,0,0,1,1,0c.08,0,.12.06.21.07a17.75,17.75,0,0,1,4.11.78c.92.32,2.55,1.18,2.9,2.14a6.09,6.09,0,0,1,.3,1.09,10.42,10.42,0,0,1-1.07,5.46c0,.08-.1.24-.17.26a1,1,0,0,1-.24,0c-.08-.08.1-.43.13-.54a23.7,23.7,0,0,0,.57-3.42c0-.08.19-.36,0-.38a.45.45,0,0,1-.08.23c-.89,1.34-3.27,2.6-4.79,3.05s-3.5.82-5.15,1.14c-5.7,1.06-11.42,1.82-17.2,2.37-3.06.28-6.14.47-9.23.63-2.83.14-5.67.28-8.52.14-.6,0-1.28-.13-1.88-.14-1.89-.06-3.78,0-5.66,0a4.18,4.18,0,0,0-.53,1.08,6,6,0,0,0,0,.85,9.76,9.76,0,0,1-.14,2.85,8.12,8.12,0,0,1-1.36,2.91c-.12.2-.06.36-.34.28-.11,0-.27-.34-.32-.46a6.77,6.77,0,0,1,.73-6.25c.21-.25.72-.56.84-.77a4.49,4.49,0,0,1,.24-.56c-.57,0-1.14,0-1.71,0-1,0-2.17-.22-3.2-.37a36.4,36.4,0,0,1-10.55-3.22,15.77,15.77,0,0,1-4.59-3c0,.11.06.15.07.24.07.39.1.81.14,1.2,0,.13,0,.3,0,.42a7.81,7.81,0,0,0,1.12.7,31.15,31.15,0,0,0,5.84,3,41.91,41.91,0,0,0,10.27,2.73c.1,0,.18.11.31.07s0,.26-.11.28a5.46,5.46,0,0,1-.91,0,26.49,26.49,0,0,1-4.2-.77,38.15,38.15,0,0,1-12-4.73,2.69,2.69,0,0,1-.53-.39c-.09-.11-.24-.48-.31-.52s-.11,0-.22-.13a.75.75,0,0,1-.14-.42c-.08-.45-.08-.83-.14-1.26s-.37-1.15-.47-1.7a12,12,0,0,1-.15-1.31,4.3,4.3,0,0,1,.15-1.68c.81-2.17,3.36-2.71,5.27-3.53a4.31,4.31,0,0,0,.83-.29c.23.19.3.27.17.56Zm15,16.38c-.07.35-.25.67-.35,1a10,10,0,0,0-.32,1.85c0,.09,0,.18-.07.21-.35.09-.42-.34-.38-.6.09-.75.38-1.55.41-2.31l.14-.59c-.11,0-.13.13-.17.21a7.08,7.08,0,0,0-.67,4.8,3,3,0,0,1,.08.52.81.81,0,0,0,.24-.28,9,9,0,0,0,1.15-4.59C64.61,112.47,64.67,112.29,64.55,112.31Z" />
  </g>
  <path
    d="M97.18,64.3h1.71s0,.06.08.06a6.73,6.73,0,0,1,3.52,1.44c.14.12.61.74.66.74s.16-.31.19-.38a7.18,7.18,0,0,0,.4-.85,22.23,22.23,0,0,0,0-2.45,9.67,9.67,0,0,1,.71-2.92,11.87,11.87,0,0,1,.79-1.52c.28-.22.48.11.59.32a5.73,5.73,0,0,1-1.36,6.33c0,.17-.64,1.2-.59,1.26a8.56,8.56,0,0,0,1.12-.74c1.48-.91,3.6-2,5.35-1.85a11.8,11.8,0,0,1,3.5.76c.17.07.52.11.58.33s-.37.44-.53.51a16.86,16.86,0,0,1-6.63.85c-.08,0-.12-.08-.2-.08a5.51,5.51,0,0,0-1.35.07,7.08,7.08,0,0,0-1.66.72c-.16.08-.34.24-.5.33s-.09,0-.1,0a5,5,0,0,0,0,.67c.06.77.2,1.6.2,2.37a21.55,21.55,0,0,0,.08,2.66,1.46,1.46,0,0,1-.25.88c0,.09-.32.23-.31.24s.13.1.24.11.48,0,.71,0l.63.07a2.26,2.26,0,0,1,.44.15s0,.06,0,.08a1.27,1.27,0,0,1,.26.58c-.07.17-.06.36-.13.55a2.57,2.57,0,0,1-1.57,1.15,1.85,1.85,0,0,0-.37.08s0,.07,0,.09c-.29.38-.44.79-.88,1a3.5,3.5,0,0,1-.55.22,2.19,2.19,0,0,1-1.61-.49c-.08-.11-.17-.46-.28-.49s-.24,0-.35,0-.13-.07-.2-.07a2.22,2.22,0,0,1-.76-.08c-.32-.12-.5-.38-.3-.69a2.23,2.23,0,0,1,1-.62s.09,0,.1,0-.12-.25-.14-.32a3.35,3.35,0,0,1,0-.55,1.47,1.47,0,0,1,.28-.42,2.49,2.49,0,0,1,.87-.33,4.13,4.13,0,0,1,2.31-.06c.2.07,0-.1,0-.17s.53-.84.17-.94-.66.14-.94.31c-.06,0-.1.13-.18.17a.83.83,0,0,1-.54,0c-.1,0-.18-.12-.29-.13a3.19,3.19,0,0,0-1.11.08c-.13,0-.49.18-.54.31s.23.34-.06.55a2.5,2.5,0,0,1-.52.19c-.33.14-.83.37-.73.79,0,.19.3.32.37.53a.56.56,0,0,1,0,.2.8.8,0,0,1-.31,0c-.09,0-.16-.24-.31-.21-.23-.48-.52-1.16,0-1.53.17-.11.9-.36.93-.47s0-.17,0-.26c.08-.38.74-.64,1.08-.74a2.9,2.9,0,0,1,1.46-.06c.06,0,.16.11.21.12.21,0,.38-.15.59-.24l.46-.17c.12,0,.5,0,.52,0s-.07-.3-.08-.38c0-.37,0-.8,0-1.19a19.43,19.43,0,0,1-.07-2.17c0-.2,0-.41.07-.62s.06-.51-.21-.29a7.8,7.8,0,0,0-.7.71c-.25.26-.59.53-.8.8-.05.05,0,.12,0,.14a1,1,0,0,1-.42.07c0-.1,0-.13-.06-.18s.3-.48.38-.59a9.76,9.76,0,0,1,1.33-1.47c.11-.11.29-.17.38-.32-.2-.14-.37-.34-.56-.48a6.75,6.75,0,0,0-3-1.24,14.45,14.45,0,0,0-1.61-.2,6.41,6.41,0,0,0-.88,0s0,.47-.14.56c.16,0,.65-.07.7.1a.44.44,0,0,1-.21.49c-.5.41-1.65.46-2.28.73-2.79.45-5.61.75-8.44.92-1.19.08-2.37,0-3.57.07-6.19.14-12.46.34-18.36-1.27a16.79,16.79,0,0,1-2.77-1.28c0-.05,0-.15,0-.18s.17-.09.27-.06.53.24.78.33a31.21,31.21,0,0,0,8.66,1.48c3.13.19,6.47.15,9.71.08,3.61-.09,7.31-.37,10.89-.78a34.76,34.76,0,0,0,4.06-.56s.16,0,.17,0,0-.3,0-.39c.12-.9.1-1.61.14-2.51.11-2.25.06-4.7.08-7a42.22,42.22,0,0,1,.21-5c0-.18-.1-.37-.08-.63,0-.07.14,0,.18-.1.19.11.14.22.18.37a19.46,19.46,0,0,1,.35,3.57,5.8,5.8,0,0,1-.08,1c0,.86.11,1.67.08,2.53-.09,2.22,0,4.46-.28,6.64,0,.1-.11.19-.07.32Zm7.89-.77c.1-.44.36-.88.48-1.31a6.4,6.4,0,0,0,.23-1.95l-.36-1.22-.34.6a11.08,11.08,0,0,0-.85,4.12c0,.08,0,.26.08.25a1,1,0,0,1,.08-.38,12.28,12.28,0,0,0,.48-2.18c0-.18-.1-.69.24-.59.1,0,.1.16.1.24a9.48,9.48,0,0,1-.13,1.76c0,.15,0,.3,0,.45s-.12.21,0,.21Zm8.46,1.33c-.31-.09-.62-.15-.94-.22a10.67,10.67,0,0,0-3.08-.34c-.49,0-1,.28-1.53.36l-1,.41.67-.07a7.28,7.28,0,0,1,.76-.15c.65,0,1.37.05,2,0a.18.18,0,0,1,.07.35,9.44,9.44,0,0,1-1.19,0,14.87,14.87,0,0,0-2.08.37l-.26.13c.62,0,1.24,0,1.86,0a22.1,22.1,0,0,0,4.39-.72l.25-.13ZM99.1,76.61a7.87,7.87,0,0,0,1.19,0,1.2,1.2,0,0,1,.28.21c.07.09.14.27.21.36a1.35,1.35,0,0,0,1.43.24c.4-.27.43-.63.67-1s.63-.3,1-.43a1.31,1.31,0,0,0,1-1.18,4.35,4.35,0,0,0-1.12-.2s0,.22,0,.3a1.72,1.72,0,0,1-.27.5,3.54,3.54,0,0,1-.87.38,3.59,3.59,0,0,1-1.54-.15c-.26-.15-.39-.46-.11-.66a1.66,1.66,0,0,1,.65-.18s.07,0,.15-.06c.3-.05.43,0,.39.35l-.42.1c.18.23.46.07.66,0a2.62,2.62,0,0,0,.27,0c.33-.06.84-.58.29-.62a1.18,1.18,0,0,1-.49-.13,6.49,6.49,0,0,0-1.95.14c-.2,0-.48.16-.52.38a.5.5,0,0,0,.17.59,4,4,0,0,0,.63.27,8.41,8.41,0,0,0,.84.29c.13,0,.3,0,.41,0s.06.42-.34.35c-.58-.19-1.17-.4-1.76-.56-.1,0-1,.48-.94.57s.15.06.17.06Z" />
  <path
    d="M116.81,106.36a.36.36,0,0,0,0,.14s.1.07.1.1a.38.38,0,0,0-.06.14c0,.07,0,.23,0,.24s-.08,0-.14,0-.09.11-.14.14a17.87,17.87,0,0,1-5.42,1.92c-2.84.71-5.72,1.11-8.59,1.55-2.33.36-4.65.57-7,.83-2,.23-4.15.35-6.21.57-2.44.26-4.9.41-7.34.63a44.38,44.38,0,0,1-9.29.07,12.64,12.64,0,0,0-2.31-.21c-.09,0-.27.07-.35.07a18.85,18.85,0,0,1-4.13-.41c-.13,0-.46,0-.52-.19s.1-.2.17-.17,0,.05.09.06A20.12,20.12,0,0,0,70,112a14.13,14.13,0,0,1,2-.15c.28,0,.69.12,1,.15a44.25,44.25,0,0,0,8.3-.15c2.7-.28,5.43-.46,8.12-.76,2-.23,4.11-.32,6.14-.57s4.18-.44,6.23-.76c2.83-.43,5.69-.75,8.46-1.46a38.31,38.31,0,0,0,5.71-1.7c.27-.12.36-.32.71-.28l.24.08Z" />
  <path
    d="M52.46,83.34s-.22.31-.28.38,0,.13.11.24c1.61,1.26,4.56,2.12,6.55,2.6a86.76,86.76,0,0,0,10.71,1.81c1.73.2,3.48.28,5.23.36,1.54.06,3.09,0,4.62.13a7,7,0,0,0,1,.08c.08,0,.11-.06.15-.07.32-.09.48.53.06.62s-.67,0-1,.07-.6.19-.84.22a28.19,28.19,0,0,1-3.56,0,77,77,0,0,1-9.35-.85A48.7,48.7,0,0,1,54.74,86.2a10.91,10.91,0,0,1-2.88-1.6c-.06-.09-.06-.28-.17-.28,0,.18-.16.35-.21.53a10.45,10.45,0,0,0-.21,1.67,85.22,85.22,0,0,0,0,9.59,15.28,15.28,0,0,1,0,2c0,.09-.11.43-.25.39s-.15-.48-.17-.6a31.89,31.89,0,0,1-.42-4.48,60.71,60.71,0,0,1,0-8,4.85,4.85,0,0,1,2.44-3.64,10.78,10.78,0,0,1,2.28-.92c.11.09.26,0,.34.12.39.53-.16.78-.57,1s-1.08.43-1.59.72a6.43,6.43,0,0,0-.87.62Z" />
  <path
    d="M91,49.18l.2.75c.09.41.11.91.23,1.31,0,0,.5.72.58.82.41.48.9.69,1.22,1.3a1.86,1.86,0,0,1,.21,1,.61.61,0,0,1-.91.29l-.76-.8c0,.31,0,.63,0,.94,0,.09.07.26.08.35a2.67,2.67,0,0,0,0,.49c0,.05.13.11.17.17a5.43,5.43,0,0,0,.35.57c.38.48.76.63,1,1.3a3.39,3.39,0,0,1,.15.61c0,.19-.14.62-.32.67-.36.1-.63-.31-.84-.56l-.52-.91c0,.41,0,.82,0,1.23a8.69,8.69,0,0,0,0,1.25,10.51,10.51,0,0,1-.15,3.22c-.08.27-.27.63-.58.67a.32.32,0,0,1-.38-.19,1.51,1.51,0,0,1-.22-.9c0-.08-.06-.11-.06-.15s.06-.12.06-.2a2.59,2.59,0,0,1,0-.28,8.79,8.79,0,0,1,.36-1.81c.06-.21.23-.52.26-.71s0-.6,0-.87c-.25.21-.32.58-.53.84s-.61.61-.83.56c-.57-.15-.41-1.14-.24-1.57a9.46,9.46,0,0,1,1-1.65A7.42,7.42,0,0,0,91,56a5.49,5.49,0,0,0,0-.91,2.1,2.1,0,0,0,0-.27c0-.08-.11-.18-.06-.32l-.67,1c0,.18-.08.11-.17.17s-.45.33-.67,0,0-1.28.19-1.71a12.3,12.3,0,0,1,.63-1.32,7.77,7.77,0,0,0,.47-.79c0-.07-.06-.12-.06-.2-.05-.54-.19-1-.27-1.48,0-.1,0-.25,0-.31s-.08.2-.1.32a3.79,3.79,0,0,1-.67,1.71c0,.05,0,.13,0,.14a2.63,2.63,0,0,1-.52.14c-.05,0-.07-.09-.11-.11a.3.3,0,0,0-.13,0s-.12-.27-.14-.33-.07-.2-.08-.26c-.13-1.05.58-2.07.9-3a8,8,0,0,0,.22-1,11.51,11.51,0,0,0-.78-1.8,4.1,4.1,0,0,0-.54-.72.74.74,0,0,0-.15,0s0-.19-.06-.24.23-.18.24-.18a2.6,2.6,0,0,1,.77.56c.54.64.72,1.5,1.22,2.14a5,5,0,0,1,2.06,1.5,1.48,1.48,0,0,1,.25.8c0,.31-.33.67-.66.59a1.39,1.39,0,0,1-.26-.1s-.26-.2-.31-.24C91.28,49.56,91.19,49.31,91,49.18Zm1.05.28c-.12-.57-.61-.89-1-1.29l-.42-.25C91.09,48.42,91.39,49.11,92,49.46Zm-2.8,2,.34-.88.22-1.36c-.08,0-.1.11-.13.19a5,5,0,0,0-.5,1.8c0,.09,0,.27.07.25ZM91.94,53s0-.1,0-.14l-.32-.35a.83.83,0,0,0,.1.56s.11.08.14.14a3.58,3.58,0,0,0,.88,1A1.92,1.92,0,0,0,92.08,53s-.12,0-.14,0Zm-2,2c0-.21.19-.32.28-.46a4.2,4.2,0,0,0,.49-1.5l-.53,1c-.08.26-.19.5-.27.77C89.93,54.78,89.84,54.92,90,54.92Zm2.66,2.94a1.12,1.12,0,0,0-.42-.77,2.31,2.31,0,0,0,.24.56C92.51,57.73,92.53,57.84,92.64,57.86Zm-2.73,1.47a2.61,2.61,0,0,0,.55-.88c.09-.21.21-.5.28-.71a1,1,0,0,0,.08-.37l-.31.42A3.16,3.16,0,0,0,89.91,59.33ZM91.1,63c0-.15.06-.27.07-.38s.06-.45.07-.63,0-.5,0-.74l-.13.33c0,.27,0,.56-.08.83s-.1.2-.06.41C91,62.81,91,63,91.1,63Z" />
  <path
    d="M71.11,82.84a.31.31,0,0,1,.15,0c.31.22.61.47.94.66.52.29,1.33.56,1.78.88.28.19,0,.43-.24.38a5.79,5.79,0,0,1-.83-.28c-.08,0-.34-.2-.36-.2s-.1.1-.15.13a12.51,12.51,0,0,1-2.78,1c-.26.08-.47.24-.71.33a10,10,0,0,1-8.7-.65c-.1-.08-.24-.3-.2-.42s.46-.43.67-.52a6.39,6.39,0,0,1,1.31-.3,10.89,10.89,0,0,1,6.15.93c.08,0,.32.19.35.19s.05-.05.08-.05c.62,0,1.25-.28,1.87-.37l1.45-.48c.08-.08-.7-.48-.78-.53-.64-.36-1.34-.58-2-1a11.65,11.65,0,0,1-1.52-1.15A4,4,0,0,1,67.1,81c-.15-.18-.38-.39-.56-.63a10,10,0,0,1-1.71-4.16,2.46,2.46,0,0,1,.07-.67c.09,0,.14,0,.18-.06a1.7,1.7,0,0,1,.79.31,14.06,14.06,0,0,1,4.75,5.53,6.36,6.36,0,0,1,.49,1.12c0,.09,0,.36,0,.38Zm-.9-.83-.29-.66A14.9,14.9,0,0,0,66,76.72c-.43-.3-.53-.4-.34.2a9.15,9.15,0,0,0,2.64,4.35c.05,0,.14.19.21.07-.17-.27-.41-.48-.59-.74-.36-.49-.67-1.06-1-1.57-.07-.3.07-.46.38-.38,0,0,.29.28.35.34.51.58.94,1.37,1.46,2C69.45,81.33,69.84,81.67,70.21,82Zm-2.94,3.07L66,84.67a11.09,11.09,0,0,0-4.52-.13l-.68.19c0,.12.17.16.26.21a11.07,11.07,0,0,0,3.48,1c.37,0,.81,0,1.19,0,.08,0,.26,0,.25-.07-.2.06-.37,0-.53-.07a11.46,11.46,0,0,1-1.74-.28c-.48-.17-.22-.62.2-.56a13.85,13.85,0,0,0,3.08.21c.08,0,.26.06.24-.07Z" />
  <path
    d="M73.62,101.1s-.1,0-.13,0-.06.25-.08.31a9.05,9.05,0,0,1-.9,1.68l.66-.11c1-.67,1.94-1.56,3-2.27a17.57,17.57,0,0,1,2.79-1.61c.74-.31,1.53-.48,2.27-.8a1.14,1.14,0,0,1,.32.08s.12.35.13.39a4.32,4.32,0,0,1-1.6,3.28,9.7,9.7,0,0,1-5.28,1.72c-.08,0-.12-.08-.2-.08a14.79,14.79,0,0,0-2.66.35c-.14,0-.53.08-.63.08s-.12-.07-.21-.08-.31.07-.46-.1-.05-.3.11-.38a4.65,4.65,0,0,1,.69-.23,6.45,6.45,0,0,0,.85-1.11c.06-.11.37-.67.38-.74s-.06-.11-.07-.2a10.73,10.73,0,0,1,.85-5.73,12.19,12.19,0,0,1,.7-1.4c.17-.26.41-.21.58,0a4.6,4.6,0,0,1,.31.68,7.64,7.64,0,0,1-1.08,5.83,4.51,4.51,0,0,1-.32.42ZM74,99.64c.08-.42.3-.82.41-1.23a8.12,8.12,0,0,0,.15-3.36c0-.11-.1-.18-.07-.31-.11,0-.13.13-.18.21a11.16,11.16,0,0,0-1.15,4.94c0,.08,0,.26.07.24a2.59,2.59,0,0,1,.2-.67c.28-.94.36-1.86.57-2.79,0-.06,0-.16,0-.18h.28a3,3,0,0,1,0,.67c-.05.61-.11,1.28-.21,1.89a3.82,3.82,0,0,1-.11.38C73.93,99.5,73.83,99.64,74,99.64Zm7-.56s-.36,0-.44.08a20.37,20.37,0,0,0-5.43,3l-.63.52a15.07,15.07,0,0,0,5.42-2.8c.29,0,.27.16.14.35a7.53,7.53,0,0,1-1.23,1.23,8.72,8.72,0,0,1-1.93,1.21l-.58.22c0,.15.14,0,.21,0a11.43,11.43,0,0,0,2-.75,4.7,4.7,0,0,0,2.27-2.42A2.81,2.81,0,0,0,81,99.08Z" />
  <path
    d="M112.82,72.83a.22.22,0,0,0-.13,0c-.22.19-.41.44-.63.64a13.46,13.46,0,0,1-3.54,2,7.2,7.2,0,0,0-.86.25A8.52,8.52,0,0,0,106.51,77a9,9,0,0,0-.88,1s.54,0,.67,0a6,6,0,0,0,1.6.14,9.86,9.86,0,0,1,4.67.37,8.31,8.31,0,0,1,2.91,2.26.68.68,0,0,1,.21.56.69.69,0,0,1-.38.25,6.41,6.41,0,0,1-1,0,13.16,13.16,0,0,1-6.25-2.56s-.13,0-.14,0,.15-.07-.24-.14a13.78,13.78,0,0,0-1.82-.28,4,4,0,0,0-.7,0c-.12,0-.21.27-.28.34s-.2.18-.28.28-.06.19-.14.21-.16-.06-.17-.1c-.09-.29.43-.79.59-1,.5-.7,1-1.42,1.54-2.1.7-.88,1.25-1.89,2-2.8.32-.41.72-.79,1-1.18a11.91,11.91,0,0,1,1.18-1.2A12.55,12.55,0,0,1,114.27,69l.47-.15a.75.75,0,0,1,.29.21c.08.13,0,.31,0,.45a10.48,10.48,0,0,1-1.55,2.56c-.16.2-.46.62-.6.77Zm-4.12,2a1.57,1.57,0,0,0,.31-.08,10.41,10.41,0,0,0,5-4.64c.07-.11.22-.23.2-.39-.43.25-.91.41-1.35.64A11.25,11.25,0,0,0,110.59,72a14,14,0,0,0-1.15,1.16c0,.06-.18.14-.08.21.58-.58,1.27-1,1.86-1.57.27-.13.79-.68,1.08-.6s.21.38.07.56-.19.11-.24.17c-1,.89-2.1,1.66-3.08,2.52a2.17,2.17,0,0,0-.35.39Zm6.23,6.29a6.84,6.84,0,0,0-4.79-2.38,3,3,0,0,0-.73-.06l1.14.36c.31.21,1.15.38,1.37.65s.08.23-.11.31l-1.68-.62-.73-.14.4.27a13,13,0,0,0,4.74,1.62c.12,0,.26,0,.38,0Z" />
  <path
    d="M94.59,83.75a.2.2,0,0,0-.14,0c-.18.13-.5.4-.7.56a6.41,6.41,0,0,0-.55.49c0,.55,0,1.14,0,1.68,0,.08.07.13.08.2a10.29,10.29,0,0,0,.21,1.68s.38.49.45.6a10.78,10.78,0,0,1,1.78,4.52c0,.13-.06.18-.07.28,0,.33,0,.64-.07,1,0,.19.08.58-.17.66a1.1,1.1,0,0,1-.31-.07s0-.1,0-.13-.09,0-.14,0a5.83,5.83,0,0,1-2.09-3.71,9.73,9.73,0,0,1,0-3.14,7.41,7.41,0,0,0-.15-1.62c0-.46,0-1,0-1.44a3.61,3.61,0,0,0-.45.42c-.33.36-.61.8-.91,1.19,0,.06-.16.14-.17.18s.07.12.07.21-.11.69-.14.91a9.05,9.05,0,0,1-2.59,5.39c-.05,0-.32.22-.34.25s-.13.21-.19.27a5.05,5.05,0,0,1-.76.7c-.07,0-.11.1-.21.07s-.17-.31-.18-.38a17.33,17.33,0,0,1,0-2.39c0-.2.1-.55.13-.77a6.14,6.14,0,0,1,1.31-2.76,10.1,10.1,0,0,1,2.33-2.13,2.76,2.76,0,0,0,.77-.63,12.67,12.67,0,0,1,2.52-2.1c.14-.09.33-.31.52-.32S94.63,83.72,94.59,83.75Zm-6.15,8.33-.17.07a.31.31,0,0,1-.25,0,.71.71,0,0,1-.13-.21s0,0,.06-.08a1.55,1.55,0,0,1,.2-.56,22.11,22.11,0,0,1,1.52-3,.45.45,0,0,0,.1-.27,7.63,7.63,0,0,0-1.6,1.93,8.4,8.4,0,0,0-.91,4c0,.08-.05.2.06.17s.05-.14.11-.2a19,19,0,0,0,1.82-2.1,10,10,0,0,0,1.21-3.2,2.29,2.29,0,0,0,0-.37l-.17.21c-.63,1.13-1.1,2.29-1.78,3.4,0,.07-.07.23-.08.23ZM94,90.33a1,1,0,0,0,.09.37,17.16,17.16,0,0,1,.68,2.11c0,.14,0,.52-.17.46s-.29-.47-.39-.73c-.25-.66-.47-1.31-.69-2a1.07,1.07,0,0,1-.07-.44c-.13,0-.07.16-.08.24s0,.24,0,.36a7.79,7.79,0,0,0,1.44,3.74l.31.35a1.48,1.48,0,0,1,0-.3c0-.21.11-.51.13-.71a6.18,6.18,0,0,0-.87-2.91L94,90.33Z" />
  <g class="cls-3">
    <path
      d="M48.34,95a.26.26,0,0,0,0-.14c-.23-.29-.47-.65-.7-.91s-1.19-.48-1.66-.64a14.91,14.91,0,0,1-2.59-1,9.34,9.34,0,0,1-2.17-1.68c-.18-.18-.51-.4-.45-.66s.34-.35.58-.39a5.79,5.79,0,0,1,5.31,2.25c.44.53.91,1.07,1.33,1.61,0,0,.16.16.18.14a5,5,0,0,0,0-.67c0-.08-.07-.13-.08-.21A3.23,3.23,0,0,0,47.74,91c-.09-.12-.26-.22-.35-.35a13.55,13.55,0,0,1-2.07-5.06,8.82,8.82,0,0,1-.27-2.39,1.37,1.37,0,0,1,.07-.24.73.73,0,0,1,.35,0,12.47,12.47,0,0,1,1.15,1.15A9.35,9.35,0,0,1,48.76,90c0,.77-.06,1.52,0,2.3a19.88,19.88,0,0,1,0,2.18s.17.2.19.28-.05.28-.17.31a1.09,1.09,0,0,1-.45-.07ZM48,88.3a3.71,3.71,0,0,0-.22-.93,13.25,13.25,0,0,0-1.42-2.78l-.74-.83c0,.15,0,.31,0,.45a15.26,15.26,0,0,0,1.69,5.17l.41.6a2.29,2.29,0,0,0,0-.37,16.28,16.28,0,0,0-1.1-3.31,1.65,1.65,0,0,1-.15-.48c.07-.23.32,0,.39.11.26.38.46.92.7,1.33l.45,1Zm-3.35,2.52a3.91,3.91,0,0,1-.75-.34,6.83,6.83,0,0,0-1.73-.36,5,5,0,0,0-.67,0c-.07,0,.25.22.28.24a9.7,9.7,0,0,0,3.24,2,13.53,13.53,0,0,0,1.34.55s.17,0,.17,0c-.21-.18-.42-.4-.63-.57a8.47,8.47,0,0,0-2.77-1.42c-.1,0-.47-.05-.51-.19s0-.24.1-.24a.38.38,0,0,0,.21.07c.13,0,.28,0,.41,0,.37.1.73.23,1.1.3.06,0,.21.12.21,0Z" />
  </g>
  <g class="cls-4">
    <path
      d="M90.75,36.8c.09,0,.15-.12.2-.19.27-.35.46-.76.74-1.21a9.32,9.32,0,0,1,5.32-4,10.78,10.78,0,0,1,1-.36c.51-.09.58.24.52.66a5.1,5.1,0,0,1-.43,1.18,8.61,8.61,0,0,1-4.36,3.32c-.65.21-1.36.29-2,.51-.08,0-.44.19-.46.21s0,.1,0,.14A14.27,14.27,0,0,0,89.8,38.9a.22.22,0,0,0,0,.14h-.29a1.72,1.72,0,0,1,0-.31c.07-.29.49-.75.55-1a14.3,14.3,0,0,0,.21-2.37c0-.08.07-.13.08-.2a3.72,3.72,0,0,0-.49-1.84,11.71,11.71,0,0,1-.41-6.21c0-.21.13-.43.19-.65,0-.05,0-.15,0-.16a1.15,1.15,0,0,1,.24-.07.32.32,0,0,1,.35.14c.24.49.6,1,.8,1.52a9.91,9.91,0,0,1,.13,4.87c-.06.38-.16.73-.21,1.13-.09.75,0,1.64-.12,2.45,0,.13-.13.28-.08.46Zm0-5c.15,0,.13-.13.14-.25a11.33,11.33,0,0,0,0-2.1,8,8,0,0,0-.76-2.32c0-.06-.06-.15-.16-.17,0,.17,0,.36-.07.53a11.16,11.16,0,0,0,.32,5.5c0,.1,0,.24.18.28s0-.19,0-.28c0-1-.06-2-.17-3.05,0-.21-.13-.55-.15-.76s0-.47,0-.64.14,0,.18,0,.16.58.18.73c.12.66.28,1.36.34,2,0,.16,0,.36,0,.53Zm7.34-.21a1.89,1.89,0,0,0-.59.15A11.49,11.49,0,0,0,93,34.62c0,.06-.18.15-.07.22L96,32.74a.28.28,0,0,1,.17.53c-1.11.82-2.3,1.56-3.42,2.37l-.35.32a8.14,8.14,0,0,0,3.63-1.57,6,6,0,0,0,2-2.46,1.11,1.11,0,0,0,.07-.31Z" />
  </g>
  <path
    d="M71.46,38.76a1.78,1.78,0,0,0,.32-.35c.43-.59.74-1.07,1.12-1.69a8.81,8.81,0,0,1,4.55-4.12,11.09,11.09,0,0,1,1.31-.43c.64-.09.34.53.17.87a10,10,0,0,1-3.53,3.32c-.74.41-1.64.63-2.33,1a9.07,9.07,0,0,0-1.43,1.78,2.65,2.65,0,0,0-.18,1.37c0,.42.13.89.15,1.32,0,0,0,.06,0,.08s0,.09-.06.14-.12.05-.17,0-.23-.45-.26-.58a15.55,15.55,0,0,1-.26-2.46c0-.66-.19-1.3-.29-2a12.22,12.22,0,0,1,1.58-7.94c.22-.37.51-.71.73-1.09.17-.12.23-.09.42,0,0,.12.11.23.13.32a9.54,9.54,0,0,1,.22,1.89,14.7,14.7,0,0,1-1.64,6.33c-.08.14-.6.88-.6.94v1.23Zm.28-2.52c0-.13,0-.2.09-.31a12.65,12.65,0,0,0,1.32-6.66c0-.08-.07-.12-.08-.2s0-.26,0-.39c-.11,0-.18.18-.24.28a12.58,12.58,0,0,0-1.93,6c0,.4,0,.86,0,1.26,0,.09-.05.27.07.25a11.34,11.34,0,0,1,.22-1.64c.15-1.09.89-2.21,1.11-3.22,0-.05,0-.16,0-.18a1.28,1.28,0,0,1,.35-.07c0,.1,0,.13.07.18a6.28,6.28,0,0,1-.15.69c-.3,1.2-.67,2.41-.9,3.64Zm6.78-3.5s-.31.06-.37.08a9.52,9.52,0,0,0-2.78,1.56c-.31.27-.59.64-.91.91.12.12.25-.13.36-.21.55-.41,1.21-.93,1.79-1.28.07,0,.33-.13.37-.08a.54.54,0,0,1,0,.2,1,1,0,0,1-.07.15c-.3.21-.59.44-.88.66-.58.43-1.18.82-1.71,1.29a3,3,0,0,0-.45.49c.13,0,.19,0,.3-.08a9.46,9.46,0,0,0,4.06-3.28c0-.06.33-.33.25-.42Z" />
  <path
    d="M65.53,44.43a.62.62,0,0,1,0,.28,4.51,4.51,0,0,1-1.27.76,13.17,13.17,0,0,0-1.7.81,6.28,6.28,0,0,1-3.11.94A9.76,9.76,0,0,1,54,45.82c-.91-.55-.35-.87.35-1.17a6.53,6.53,0,0,1,2.16-.5,10,10,0,0,1,3.78.55,7.59,7.59,0,0,1,2.09.71A5.52,5.52,0,0,0,63.43,45c-.06-.08-.23-.09-.31-.12-.3-.13-.8-.47-1.06-.55a6.69,6.69,0,0,1-3.18-1.79s-.12,0-.14,0,0-.1,0-.14A8.82,8.82,0,0,1,57.59,41a.69.69,0,0,1-.11-.63,1.53,1.53,0,0,1,.6-.08,6.72,6.72,0,0,1,4.21,3.27c.07.14.06.29.12.38a8.3,8.3,0,0,0,1.33.76A1.73,1.73,0,0,0,65,44.56c.08,0,.17-.11.23-.13h.32Zm-4-1.12c.07-.08-.26-.42-.31-.5a6.33,6.33,0,0,0-2.67-1.87c-.66-.24-.28.11-.05.4a7,7,0,0,0,1,1.16c.1.09.3.19.41.28s.19.26.28.14c-.15-.14-.29-.33-.45-.46a3.45,3.45,0,0,0-.38-.31c-.06,0-.14,0-.14,0s0-.51.24-.42l2.06,1.61Zm-.21,2.24c-.3-.07-.59-.19-.88-.27-1.83-.54-3.59-1-5.45-.3l-.79.29c0,.09.1.11.16.15a9.07,9.07,0,0,0,6.5,1.1l.46-.2c-.42,0-.8.11-1.22.07a16.58,16.58,0,0,1-2.71-.5c-.21-.06-.45-.15-.65-.2h-.23s0-.06,0-.1,0,0-.06-.08.1-.15.07-.24a3.47,3.47,0,0,1,.79.08,12.84,12.84,0,0,0,3.78.27c.09,0,.26.06.24-.07Z" />
  <g class="cls-5">
    <path
      d="M112.13,95.93c.32-.11.64-.24,1-.34s.54-.1.75-.15.8-.48,1.14-.62a5.06,5.06,0,0,1,1-.29,9.17,9.17,0,0,1,2,0,8.4,8.4,0,0,1,4.08,2.14c.1.08.26.22.35.28a.22.22,0,0,0,.14,0,1.6,1.6,0,0,1,0,.38c0,.15-.33.17-.44.19-2.69.57-5.32-1-7.9-1.69a8.13,8.13,0,0,0-2.37.57,5.53,5.53,0,0,0-.71.48c-.1,0-.28,0-.31-.1-.07-.25.38-.57.52-.74s.41-.72.66-1c.06-.21-.09-.44-.13-.64-.37-2.14.71-4.19,1.92-5.9.2-.3.38-.83.83-.7.22.06.23.41.26.58a6.71,6.71,0,0,1-2.07,6.41l-.66,1.12Zm.14-2.76c0,.34,0,.73,0,1.09.21,0,.11-.06.15-.17.23-.65.52-1.29.69-2,.21-.28.27-.85.45-1.1.08-.1.21,0,.28-.13.33.27.06.62,0,.94,0,.14,0,.34-.09.48-.1.34-.27.67-.34,1a.43.43,0,0,0,.2-.18,6.18,6.18,0,0,0,.85-4.34c0-.22,0-.47-.18-.16a14.27,14.27,0,0,0-.93,1.58A9.15,9.15,0,0,0,112.27,93.17Zm9.71,4a2.1,2.1,0,0,0-.35-.31A8,8,0,0,0,116.07,95l-.45.14h1.08s0,.06.08.07a5.18,5.18,0,0,1,2,.6c.13.07.12,0,.18.18.07,0-.05.13-.07.14-.24.06-.54-.15-.78-.21a10.18,10.18,0,0,0-2.64-.28c-.09,0-.27-.06-.25.06a1.12,1.12,0,0,1,.37.09,22.47,22.47,0,0,0,4.2,1.25s.06.07.07.07H122Z" />
  </g>
  <path
    d="M81,44.43c.15,0,.31,0,.45,0l.55-.08c.63-.11,1.28-1.05,1.57-1.58a4.18,4.18,0,0,0,.5-1.53,1.61,1.61,0,0,0-.22-.9c0-.08-.17-.24-.23-.32s-.37-.25-.32-.5c.11,0,.15-.08.24-.06s.28.22.39.31a4,4,0,0,0,.43.28,1.13,1.13,0,0,1,.33.5c0,.1,0,.19,0,.27a3.45,3.45,0,0,1-.8,2.76,3.88,3.88,0,0,1-1.27,1.12,9.57,9.57,0,0,1-2,.07c-.08,0-.13.08-.2.07s-.19-.15-.28-.13-.37.18-.51.2a3.85,3.85,0,0,1-1.3-.14,1.38,1.38,0,0,1-.74-.74,2.17,2.17,0,0,1-.08-.76V43a3.44,3.44,0,0,1,.81-2.27c.18-.22.45-.41.63-.63a4.73,4.73,0,0,1,.94-.88,2.78,2.78,0,0,1,1.44-.45c.07,0,.11.06.14.06a1.59,1.59,0,0,1,.9.36,2.32,2.32,0,0,1,.67,2.07c0,.08,0,.32-.07.42a4.54,4.54,0,0,1-1.86,2.55.5.5,0,0,0-.17.21Zm.49-3.64c0,.14.12.25.14.38s-.1.4-.08.62a3,3,0,0,1-.58,1c-.11.15-.2.48-.42.42s-.31-.28-.25-.52c0-.06.25-.23.32-.31a2.88,2.88,0,0,0,.45-1c0-.29-.33-.11-.49,0a4.09,4.09,0,0,0-1,1.67c0,.08-.11.17-.12.23a.5.5,0,0,0,.13.55c.48.36,1-.2,1.33-.49a3.4,3.4,0,0,0,1.4-2,1.89,1.89,0,0,0-.25-1.3,1,1,0,0,0-1.31-.2,4.7,4.7,0,0,0-.92.69l-.21.28c-.16.19-.4.36-.56.56a2.6,2.6,0,0,0-.6,2.21c0,.07,0,.14,0,.2s.19.17.24.25l0-.74a4.37,4.37,0,0,1,1.54-2.45A1.15,1.15,0,0,1,81.53,40.79Z" />
  <path
    d="M79.57,79.07c.05.25-.11.22-.21.31a1,1,0,0,0-.17.25c0,.06-.16.07-.22.14a1.49,1.49,0,0,0-.18.51c-.05.15-.17.21-.13.43s0,.33.07.49a5.46,5.46,0,0,0,.94,2.14,2.09,2.09,0,0,0,1.86.76c-.22-.31-.57-.54-.81-.83L80.51,83a3.92,3.92,0,0,1-.66-1.08c0-.15-.13-.56-.15-.7a2.41,2.41,0,0,1,.85-2.44c.22-.18.28-.14.51-.19s.38-.12.5-.13a3.81,3.81,0,0,1,1,.29,7.74,7.74,0,0,1,2.06,2.2,5.15,5.15,0,0,1,.49,1.48c0,.06-.06.11-.07.19,0,.24,0,.41,0,.63a1.55,1.55,0,0,1-.48,1.2,2.9,2.9,0,0,1-.47.23c-.15,0-.33,0-.48,0a2,2,0,0,1-.63.07c-.17,0-.5-.24-.7-.28s-.24.13-.28.13-.06-.07-.1-.1-1.42,0-1.7-.1c-.06,0-.09-.09-.11-.11a1.63,1.63,0,0,1-.31-.11,4.1,4.1,0,0,1-1.22-1.36,3.64,3.64,0,0,1-.5-1.67c0-.09-.08-.14-.08-.21a5.71,5.71,0,0,1,.14-.64,2.26,2.26,0,0,1,0-.27l.17-.25c.18-.22.33-.24.53-.38a2.55,2.55,0,0,1,.52-.38c.09,0,.14.09.24.06Zm4.19,4.83.21-.11c.21-.18.2-.65.22-.9,0,0,0-.06,0-.09A5.87,5.87,0,0,0,84.1,82a8,8,0,0,0-1.81-2.32,1.06,1.06,0,0,0-1.64.11,1,1,0,0,0-.17.59c0,.09-.07.13-.08.21a3.13,3.13,0,0,0,.32,1.37,6.76,6.76,0,0,0,.49.7,4.54,4.54,0,0,0,1.34,1.11c.14,0,.54-.09.58-.24a1.36,1.36,0,0,0,0-.35A4,4,0,0,0,82,81c-.13-.09-.25-.15-.35,0a2.49,2.49,0,0,0,.38,1.16c0,.07.22.18.24.25a.43.43,0,0,1-.24.58c0-.07-.16-.06-.17-.06a1.64,1.64,0,0,0-.1-.28,2.45,2.45,0,0,1-.6-1.44c0-.08-.08-.14-.07-.2s.06-.06.06-.09,0-.13,0-.19.08-.08.1-.12a.3.3,0,0,0,0-.13,2.92,2.92,0,0,1,.38-.14s.07.06.14.07.33,0,.53.1a4.17,4.17,0,0,1,1.18,1.62,2.69,2.69,0,0,1,.22,1.39,2.52,2.52,0,0,0,0,.39Z" />
  <path
    d="M65.1,102.72c.08.08.38-.23.49-.21,0-.21.2-.2.32-.35a2.34,2.34,0,0,0,.3-.47,1.12,1.12,0,0,0,.08-.26,5,5,0,0,0-.43-3.15c-.09-.15-.25-.17-.3-.25s0-.12,0-.14a5.08,5.08,0,0,0-.86-.29c-.06,0-.32-.1-.32-.17a1,1,0,0,1,.1-.17l.21-.06s0,0,.08,0a2.7,2.7,0,0,0,.75,0,3.7,3.7,0,0,1,.54.24c.06,0,.06.13.1.17A3,3,0,0,1,67,99.54a5.27,5.27,0,0,1-.07,1.81,1.75,1.75,0,0,1-.45.81,6.9,6.9,0,0,1-1.29.94c-.1.07-.25.29-.33.31-.48.14-.37.32-.73.61a4.74,4.74,0,0,1-1.15.51c-.19,0-.23,0-.35-.06a1.27,1.27,0,0,1-.2,0,2.28,2.28,0,0,1-.39-.24,4.29,4.29,0,0,1-.38-.45,5.37,5.37,0,0,1-.66-1.31,4.36,4.36,0,0,1,0-1.61c.15-1.17.39-2.76,1.73-3.16a1.82,1.82,0,0,1,1.45.21,2.53,2.53,0,0,1,1,1.27c0,.12.24.42.26.51a4.52,4.52,0,0,1-.05,2.1c0,.15-.27.88-.22.93Zm-.9-2.06c0,.36,0,.87,0,1.26,0,.11-.39.13-.42.1s0-.06,0-.09-.17-.17-.13-.44a2.39,2.39,0,0,0,0-1,2,2,0,0,0-.14-.36.82.82,0,0,0-.17-.11,1,1,0,0,0-.17.18,4.39,4.39,0,0,0,.07,2.51c0,.06.08.08.1.11a1.19,1.19,0,0,1,0,.14,1,1,0,0,0,.24.07c.38.06.59-.28.72-.6a5.11,5.11,0,0,0,.37-2.24c0-.25-.09-.52-.15-.76,0,0-.4-.61-.45-.67a2.43,2.43,0,0,0-.29-.2c-.82-.42-1.34.06-1.62.81a8,8,0,0,0-.37,1.66,5.52,5.52,0,0,0,.08,1.47s.09.07.1.11a4.15,4.15,0,0,0,.39.76s.09,0,.14,0,.06.16.07.18a2.53,2.53,0,0,0,.48.07,8.6,8.6,0,0,0-.48-.75,4.26,4.26,0,0,1-.23-1.52s-.06-.08-.06-.14.07-.13.08-.21a3,3,0,0,1,0-.42c0-.07.17-.56.2-.63a1.46,1.46,0,0,1,.73-.51s0,0,.07,0,.06,0,.07,0a3.05,3.05,0,0,1,.32.13s0,.08,0,.14a1,1,0,0,1,.15.14c0,.06,0,.08,0,.1s.17.23.19.29a3.21,3.21,0,0,1,.08.34Z" />
  <path
    d="M101.65,100.34a2.67,2.67,0,0,1,0-.38c.12-.7,1.42-1.43,2.06-1.64A11.08,11.08,0,0,1,105,98.1c.07,0,.11.07.2.07.61,0,1.24-.21,1.89-.14a4.31,4.31,0,0,1,.62.15,3.27,3.27,0,0,1,.46.45,2.46,2.46,0,0,1,0,.47c-.11.6-1.06,1.22-1.58,1.44-.11,0-.41.06-.44.19s0,.13,0,.2a1.69,1.69,0,0,1-1,.94,2.18,2.18,0,0,1-2.09-.19A6,6,0,0,1,102,102a2.38,2.38,0,0,1-.63,0c-.13,0-.36.14-.49.15a7.44,7.44,0,0,1-1.25,0,1.72,1.72,0,0,1-.45-.31,1,1,0,0,1,.07-1,3.88,3.88,0,0,1,.23-.33s.25-.11.25-.17a1.51,1.51,0,0,1-.14-.21,1.44,1.44,0,0,1,.38-1.29,3.57,3.57,0,0,1,3-1.26.18.18,0,0,1,.13.06s.59-.51.74-.59l.39-.17a2.16,2.16,0,0,1,1.22.24.6.6,0,0,1,.17.88c0,.08-.09.09-.17,0s0-.38-.18-.52a1.21,1.21,0,0,0-1.22,0c-.36.2-.61.72-1.08.66a2.62,2.62,0,0,0-1.32.15,2.33,2.33,0,0,0-1.36,1.15l-.08.21c0,.08,0,.1.06.14a1.41,1.41,0,0,1,0,.2,1,1,0,0,0,.25.24c.07,0,.17,0,.26,0s.07,0,.15.06a6.06,6.06,0,0,0,.74,0Zm5.87-1.61a5.47,5.47,0,0,0-1.33-.14s.2.26.13.52-.5.59-.69.71a2.37,2.37,0,0,1-1.5.32c-.17,0-.55-.24-.59-.4s.25-.51.39-.58l.41-.14a1,1,0,0,1,.52,0c.35.22-.07.4-.31.46s-.22-.09-.18.13a2.52,2.52,0,0,0,1.33-.45c.25-.18-.17-.4-.32-.45l-.42-.08c-.07,0-.12.07-.2.07s-.29,0-.43,0a5.8,5.8,0,0,0-1.7.67c-.16.11-.55.5-.49.69s.88.35,1.07.39a.21.21,0,0,1,.11.24c-.08.29-.81-.06-1,0a3.52,3.52,0,0,0-.43.13c-.09,0-.19,0-.27,0s-.3.23-.35.27-.12.11-.1.21.27.07.38.08l.56-.08c.36-.06.92-.37,1.25-.27.06,0,.24.21.32.24a3.27,3.27,0,0,0,1.35-.05c.46-.16.48-.41.54-.85.32-.46.9-.48,1.35-.75a5,5,0,0,0,.43-.35c.06-.09.24-.49.17-.56Zm-6.78,2.17s-.28,0-.38,0-.36-.27-.42-.27-.67.91-.21,1a4.25,4.25,0,0,0,.8,0,2.3,2.3,0,0,1,0-.23C100.56,101.27,100.77,100.94,100.74,100.9Z" />
  <path
    d="M100.81,80.89s.48,0,.6,0a4,4,0,0,1,.42.13,2.54,2.54,0,0,1,1.22.54s.12,0,.13,0,0,.11,0,.13.11,0,.13,0,0,.07,0,.09a3,3,0,0,1-.7,4c-.46.36-.65.2-.9.85,0,.13-.06.32-.09.41a2.78,2.78,0,0,1-.62,1,2,2,0,0,1-1.21.45l-.42-.07a1,1,0,0,1-.57-.34c-.15-.22-.12-.33.15-.42,0,0,.31.13.41.14a4.59,4.59,0,0,0,.83,0,2.74,2.74,0,0,0,.39-.24,3,3,0,0,0,.62-1.27c.06-.18.06-.51.19-.66s.48-.24.66-.38a3.52,3.52,0,0,0,1-1.75,5.24,5.24,0,0,0,0-1,1.69,1.69,0,0,0-1-.87,3.6,3.6,0,0,0-1.25-.15l-.25.07s0,.24-.1.28a.35.35,0,0,1-.38-.18c.13-.66.43-1.79-.53-1.85-.12,0-.4.31-.49.42s0,.12,0,.14-.1,0-.13,0,0,.11,0,.13l-.24.08a.87.87,0,0,1-.28,0c-.12,0-.45-.51-.59-.59l-.26-.09a2.05,2.05,0,0,0-.54.14,2.76,2.76,0,0,0-1.31,2.62c0,.12.12.37.14.49.05.38-.08.3-.24.52a3.07,3.07,0,0,0-.45,1.15,3.37,3.37,0,0,0,1,2.52,3,3,0,0,0,.67.38A1.83,1.83,0,0,0,98,87.51c.11-.08.41-.52.49-.21a1.12,1.12,0,0,1-.07.38s-.07,0-.1,0a4.19,4.19,0,0,1-.86.47,1.34,1.34,0,0,1-1,.09,2.25,2.25,0,0,1-1.62-1.59A3.45,3.45,0,0,1,95,83.59c.07-.1.4-.45.41-.5s0-.12-.06-.2a3.41,3.41,0,0,1,.15-2A3,3,0,0,1,97,79.36a2.53,2.53,0,0,1,.27,0c.08,0,.13-.06.2-.07a1.26,1.26,0,0,1,.81.25c.07,0,.19.23.24.24s.37-.32.5-.41a1,1,0,0,1,.54-.16.36.36,0,0,1,.15-.06l.53.17a2.38,2.38,0,0,1,.48.57l.08.34c0,.12,0,.64,0,.67Z" />
  <path
    d="M95.89,69.63a1.69,1.69,0,0,1,.55,0c.26.07.15.38,0,.52a2.28,2.28,0,0,1-.87.25,53.93,53.93,0,0,1-8.25,1.18c-2,.14-3.82,0-5.8.14a30.73,30.73,0,0,1-6.71-.48c-.14,0-.62,0-.66-.18a.18.18,0,0,1,.07-.21,5.31,5.31,0,0,1,1.15,0c.08,0,.13.07.21.08,2.48.16,5,.14,7.48.06a82.66,82.66,0,0,0,11.6-1c.4-.08.88-.23,1.26-.28Z" />
  <path
    d="M109.61,100.41l1.5-.56c.31,0,.44,0,.39.35l-.93.36a8.91,8.91,0,0,1-3.57,1c-.12,0-.42-.06-.46-.18s0-.14,0-.17a22.66,22.66,0,0,1,2.4-.7c0-.38,0-.78,0-1.15,0-.13,0-.32-.07-.49-.35-3.36-.09-7-.14-10.44,0-1.19-.09-2.5-.15-3.7,0-.3,0-.69,0-1s.17-.35.35-.14l.15.9c.07.52.23,1.11.28,1.62a118.93,118.93,0,0,1,.2,13.09c0,.38,0,.77,0,1.15Z" />
  <path
    d="M106.33,92.64l-.45.63A3.63,3.63,0,0,1,105,94a2.12,2.12,0,0,1-.41.08,2.48,2.48,0,0,1-.32-.17c-.28-.21-.32-.86-.28-1.19,0-.1.16-.37.14-.39s-.36,0-.56-.1-.17-.29-.21-.48c0,0,0-.06-.06-.09s.06-.12.07-.2,0-.28,0-.41a2.5,2.5,0,0,1,1.16-1.37c.09,0,.36,0,.37,0s0-.11,0-.17a7,7,0,0,1,.31-.68,1.81,1.81,0,0,1,.24-.24,1.55,1.55,0,0,1,1.33.07,1.48,1.48,0,0,1,.49.84c0,.09,0,.43,0,.46a.31.31,0,0,1,.16,0,.83.83,0,0,1,.37.26,1.9,1.9,0,0,1,.1.89,3.55,3.55,0,0,1-.66,1.22c-.09.1-.45.36-.46.38s.13.46.14.63a1.51,1.51,0,0,1-.25,1.09,1.62,1.62,0,0,1-.7.62l-.34.08c-.2,0-.36-.13-.56-.07s-.48.51-.64.62-.86.36-1.11.08c0,0-.16-.3-.17-.33a5.21,5.21,0,0,1,0-1c0-.08.09-.16.08-.17s-.45.11-.6-.14a1.32,1.32,0,0,1,0-.53,2.1,2.1,0,0,1,.69-1c.11-.06.39-.06.42.07s-.4.46-.45.6-.24.42-.17.49.28-.13.38-.14c.42-.06.34.39.32.73a4.37,4.37,0,0,0-.08.7c.05.47.31.14.49,0s.11,0,.15-.07c.27-.22.41-.54.8-.59.21,0,.41.11.55.06a4.07,4.07,0,0,0,.43-.41,2.55,2.55,0,0,0,.17-.32Zm.27-3.49c-.12,0-.17-.12-.24-.14s-.13,0-.19,0-.1-.09-.28,0c-.33.2-.41.95-.6,1.08s-.46.06-.59.11l-.18.1a2.59,2.59,0,0,0-.42.5c0,.06-.19.43-.21.49s0,.54.1.59a2.53,2.53,0,0,0,.39,0s.09-.29.14-.39a7.21,7.21,0,0,1,.66-.88s.26-.21.31-.25c.36-.24,1.21-.13,1.32.36,0,.22,0,.32-.07.48a2.61,2.61,0,0,1,0,.28c0,.21-.21.41-.13.67a2.28,2.28,0,0,0,.69-.88c.09-.23.28-.78,0-.86-.14,0-.22,0-.35-.15s-.07-.42-.11-.66S106.63,89.3,106.6,89.15Zm-.27,1.67c-.09,0-.14,0-.18-.06a.61.61,0,0,0-.52.17,4.46,4.46,0,0,0-1,1.41,2,2,0,0,0-.15,1,1.43,1.43,0,0,0,.24.25c.09,0,.45-.34.55-.42a.45.45,0,0,1,.18-.07c.18-.14-.22-.13-.28-.17-.29-.18-.11-.82,0-1.09a1.82,1.82,0,0,1,.36-.41c.08,0,.13.1.24.06.11.12-.47.84-.35,1s.69-.54.65-.72A2.18,2.18,0,0,0,106.33,90.82Z" />
  <path
    d="M77.2,36.66s0,.05.16-.14a8.1,8.1,0,0,1,.88-.67,2.8,2.8,0,0,1,2.9-.09,3.8,3.8,0,0,1,1.15,1.5c.14.4.06.56-.35.34-.2-.11-.22-.23-.34-.35s-.8-.87-1.09-.94a5.53,5.53,0,0,0-.91,0c-1.44.15-2.68,2.18-3.42,3.28-.06.09-.08.21-.14.28a2.15,2.15,0,0,1-.35.28c-.21.06-.34,0-.48-.07a1.46,1.46,0,0,0-1.43.89,4.17,4.17,0,0,0-.42,2.79A5.59,5.59,0,0,0,76,47l1.28.46c.17.15,0,.28-.1.38a8.38,8.38,0,0,1-1.46-.42,6.37,6.37,0,0,1-2.76-2.7,6.92,6.92,0,0,1-.35-1.61,4.7,4.7,0,0,1,.19-1.26c.29-1.18.76-2.43,2.14-2.62.14,0,.34,0,.46,0a7,7,0,0,0,.52-.73c.3-.44.57-.92.91-1.33Z" />
  <path
    d="M85.86,46.67s0,0-.14.16a6.4,6.4,0,0,1-5.42,1.45,12.1,12.1,0,0,1-2.23-.72,1.09,1.09,0,0,1-.24-.24c-.12-.42.2-.17.39-.11A7.26,7.26,0,0,0,84,47a7,7,0,0,0,2.9-2.69c.19-.39,0-.57-.07-.9s.38-.95.49-1.41a5.37,5.37,0,0,0-.14-3.27A2.26,2.26,0,0,0,86,37.51a5.49,5.49,0,0,0-2.37-.37c-.09,0-.16.1-.27.07s-.13-.21-.11-.31.29-.22.39-.24a9.62,9.62,0,0,1,1.61,0,4.27,4.27,0,0,1,1.91.74,3.77,3.77,0,0,1,1.11,2.11,6.4,6.4,0,0,1-.2,2.78c-.06.17-.48,1-.48,1.05s.12.37.14.49c.11.78-1.09,2.32-1.68,2.81,0,0-.12,0-.14,0Z" />
  <path
    d="M60.56,64.93a.7.7,0,0,1-.07.45,1.85,1.85,0,0,1-.32.25c-.38.1-.84.11-1.24.22a2.62,2.62,0,0,0-1.55.9A3.23,3.23,0,0,0,57,68.1c-.13,1.09-.14,2.2-.2,3.31s-.19,2.4-.14,3.56c.08,1.86.09,3.86.28,5.74a1.34,1.34,0,0,1-.06.57c0,.14,0,.38-.26.31s-.15-.6-.17-.74a59,59,0,0,1-.42-12c0-.42.07-.91.13-1.33A2.81,2.81,0,0,1,58.44,65a6.47,6.47,0,0,1,1.87-.21C60.39,64.82,60.43,65,60.56,64.93Z" />
  <path
    d="M80.76,77.32c-.09-.09.17-.66.25-.77a6.64,6.64,0,0,1,.66-.81,4.7,4.7,0,0,1,1.08-.53,3.4,3.4,0,0,1,2.41.74,10,10,0,0,1,2,2.74,5.69,5.69,0,0,0,.35.7c.12.07.37,0,.52,0a4.51,4.51,0,0,1,.81.37,3,3,0,0,1,.69.92A9.18,9.18,0,0,1,90,82.53c0,.2,0,.38.07.63s-.09.37-.13.57a4.93,4.93,0,0,1-.51,1.59,5.79,5.79,0,0,1-1.25,1.27,5.43,5.43,0,0,1-2.69,1.18c-.09,0-.19.09-.34,0a.63.63,0,0,1-.19-.17s.13-.22.19-.24l.47-.08a5,5,0,0,0,2.94-2,5.13,5.13,0,0,0,.38-.46,5.31,5.31,0,0,0,.37-1.17,4.37,4.37,0,0,0,.13-.86A5.65,5.65,0,0,0,89,81.15a1.51,1.51,0,0,0-.94-.88l-.41-.07a.88.88,0,0,1-.35.06c-.46-.06-.68-.85-.88-1.22a9.08,9.08,0,0,0-1.81-2.39,3.1,3.1,0,0,0-1.43-.59,1.29,1.29,0,0,0-1.09.32c-.24.18-.46.53-.69.69s-.58.31-.63.25Z" />
  <path
    d="M84.53,87a.24.24,0,0,1-.07.25l-.25.16a8,8,0,0,1-1.1.3,7.27,7.27,0,0,1-1.68.35,7.15,7.15,0,0,1-3.21-.79,6.88,6.88,0,0,1-3.11-3.39c0-.08-.14-.39-.14-.41s0-.13,0-.28.19-.62.13-.83-.23-.43-.26-.58a9.54,9.54,0,0,1-.22-1c0-.24,0-.52,0-.77,0-.09-.07-.13-.07-.21s.06-.13.07-.2a4.76,4.76,0,0,1,.53-2,3,3,0,0,1,1.61-1.39,7.08,7.08,0,0,1,1.38-.21c.44.06,1,0,1.47.13a.4.4,0,0,1,.32.38c0,.36-.37.06-.52,0a6.25,6.25,0,0,0-1.06,0,4.73,4.73,0,0,0-1.61.42s-.09,0-.12,0a4.82,4.82,0,0,0-.56.55,5,5,0,0,0-.52,1,6.36,6.36,0,0,0-.16.89,5.4,5.4,0,0,0,0,.71,5.37,5.37,0,0,0,.07,1.25c.07.42.44.69.34,1.26,0,.13-.18.33-.2.43-.08.33.54,1.19.73,1.5a7.34,7.34,0,0,0,3.43,2.44,6.63,6.63,0,0,0,2.23.36c.09,0,.15-.09.28-.07a4.36,4.36,0,0,0,1.19-.15c.07,0,.15,0,.21,0s.77-.31.87-.21Z" />
  <path
    d="M100.46,85.65s0,.46,0,.58-.22.4-.27.6c-.2,0-.42.31-.6.35a1.36,1.36,0,0,1-1-.24l-.27-.18s-.36-.43-.39-.49,0-.19-.14-.13-.08.08-.14.13c-.71.4-1-.06-1.21-.67a2.89,2.89,0,0,1,0-2.27.59.59,0,0,1,.67-.34c0,.09,0,.13.07.18s-.16.48-.2.63a2.93,2.93,0,0,0,0,1.38c0,.18.18.36.2.53l.6-.34c.32-.08.83.64,1.07.8s.28.09.39.17.3-.18.31-.24,0-.17,0-.27,0-.41.06-.64A1.37,1.37,0,0,1,99.7,85s.07,0,.09,0a1.57,1.57,0,0,1,.3-.2,2.84,2.84,0,0,0,.45-.1,1.77,1.77,0,0,0,.42-.71,4,4,0,0,0,0-.49c0-.35-.94-.71-1.26-.8,0,0,.26.66.28.8a1.38,1.38,0,0,1-.35,1,3.38,3.38,0,0,1-.46.24c-.18,0-.24,0-.35,0a1.21,1.21,0,0,1-.59-.26,2.94,2.94,0,0,1-.76-1.12,2.61,2.61,0,0,1,0-.28c0-.08-.08-.13-.07-.2a1.92,1.92,0,0,1,.17-.39.79.79,0,0,1,.28-.21c.68-.14.91.41,1.22.88.08.36-.36.37-.41.31s-.11-.32-.18-.42-.32-.33-.35-.35-.15.19-.17.24.05.16.07.2a3,3,0,0,0,.24.33c.06.06.46.47.5.48a.37.37,0,0,0,.51-.25A2.05,2.05,0,0,0,99,82.35a2.78,2.78,0,0,0-.43-.41,1.11,1.11,0,0,0-.55-.15c-.2,0-.42.18-.56.2a.88.88,0,0,1-.32,0v-.28a1.23,1.23,0,0,0,.17,0c.12,0,.27-.17.37-.19s.3,0,.49-.07a1.93,1.93,0,0,1,.79.23c.11.08.31.37.39.39s.11,0,.14-.06a1.57,1.57,0,0,1,1,.07,2.29,2.29,0,0,1,1.3,1.22s.06.25.07.28a2,2,0,0,1,0,.35c0,.1-.06.31-.08.4a1.88,1.88,0,0,1-1.15,1.3s-.09,0-.1,0Z" />
  <path
    d="M58.18,106.22a.36.36,0,0,0,.08.18.62.62,0,0,0,.27.17s0,.11,0,.13.09,0,.14,0a3.1,3.1,0,0,0,1.16.66,6.08,6.08,0,0,0,2.51.36l1.32-.35c.25,0,.27.37-.07.48l-.42.14a5.17,5.17,0,0,1-2,.21,6.2,6.2,0,0,1-2.41-.59l-.56-.39s.05,0-.14-.17-.28-.35-.38-.45-.27-.24-.35-.35a6.53,6.53,0,0,1-.45-1,6.7,6.7,0,0,1-.3-1.17,3.57,3.57,0,0,1-.11-.77,2.5,2.5,0,0,1,.34-1c.09-.12.21-.21.31-.32s0-.12,0-.13.36-.08.41-.26c0-.84-.07-1.75,0-2.59,0-.08.06-.12.08-.2a4,4,0,0,1,.76-2.18c.1-.15.11-.08.14-.1s0-.09,0-.14a2.31,2.31,0,0,1,1.69-.84c.06,0,.11-.06.13-.06s.07,0,.14.06a3.32,3.32,0,0,1,1.39.43c.22.13.76.51.22.55s-1.26-.35-1.81-.27c0,0-.06,0-.09,0h-.19a3.1,3.1,0,0,0-1.36,1.58,7.17,7.17,0,0,0-.29,2.45v.27a8.37,8.37,0,0,1,0,1.33,1,1,0,0,1-.09.18c-.17.25-.59.27-.78.49,0,0,0,.1-.07.14a.83.83,0,0,0-.23.4,2.29,2.29,0,0,0-.08.69,4.61,4.61,0,0,0,.87,2.28c.06.07.16,0,.17.07Z" />
  <path
    d="M55,101.67a.19.19,0,0,0-.14,0,1.53,1.53,0,0,1-1.43.52c-.08,0-.16-.08-.17-.07s0,.11,0,.17a2.42,2.42,0,0,1-.14.56,2,2,0,0,1-1,.74,3.5,3.5,0,0,1-.91.07c-.3,0-.75-.46-.9-.41a2.84,2.84,0,0,1-.35.13,1.2,1.2,0,0,1-1.19-.41c-.25-.36,0-1,.18-1.29.05-.07.2-.2.2-.22s-.35-.15-.45-.31,0-.23-.09-.32c.08-.13.09-.34.15-.46a3.36,3.36,0,0,1,.72-.62A1.84,1.84,0,0,1,51,99.6s.06.1.11.11.32-.2.45-.31a3.63,3.63,0,0,1,2-1.08c.08,0,.14-.09.2-.07l.09.06a1.67,1.67,0,0,1,.86.32,2,2,0,0,1,.48.7,1.3,1.3,0,0,1-.23.94c-.12.18-.27.13-.08.42s.33.29.24.66A3.05,3.05,0,0,1,55,101.67ZM49,101c.09,0,.14.06.18.07s.24,0,.33,0a1.48,1.48,0,0,1,.25.25c.06.19-.35.62-.45.79-.34.63-.16.88.56.78.23,0,.4-.29.69-.21.07,0,.18.19.25.24a1.74,1.74,0,0,0,1.08.17,1.94,1.94,0,0,0,.56-.27c.17-.2.31-1,.49-1.05.42-.11.83.15,1.3-.18.24-.17.36-.33.17-.6-.06-.09-.37-.41-.38-.45a1.64,1.64,0,0,1,.07-.28c0-.07.14-.11.17-.18.18-.29.41-.53.07-.84a1.35,1.35,0,0,0-1.46-.13,5.77,5.77,0,0,0-1.44.94c.09.09.25-.11.39-.17.53-.22,1.55-.3,1.64.45a1.1,1.1,0,0,1-.46.8c-.37.3-1.38.63-1.57,0,0,0,.07-.24.08-.27a.75.75,0,0,1,.65-.32c.09,0,.15.24.11.28s-.22,0-.22.14c.27.05.45-.17.7-.22,0,0,0-.06,0-.08s.29-.32.1-.39a1.23,1.23,0,0,0-.9.07,2.13,2.13,0,0,0-.67.51c0,.05-.13.05-.18.11a4.11,4.11,0,0,0-.24.39c-.1.48.41.58.79.51.12,0,.47-.26.53,0s-.37.26-.53.37-.35.07-.41.07a.54.54,0,0,0-.13-.06,1,1,0,0,1-.57-.2,5.08,5.08,0,0,1-.23-.47,1.45,1.45,0,0,1,.23-.73c.18-.24.48-.4.67-.63-.21.07-.35-.12-.52-.14a1.86,1.86,0,0,0-1.11.22A1.25,1.25,0,0,0,49,101Z" />
  <path
    d="M98.57,49.54c.21.2.52.66.74.9s.48.28.73.46l.49.39s0,.09,0,.13c1.79,2,2.4,4.45,2.84,7,0,0,.06.07.07.14a2.48,2.48,0,0,1-.15.46.85.85,0,0,1-.37.06,5.14,5.14,0,0,1-1.9-1.46c-1.34-1.59-1.61-3.74-1.92-5.69,0-.13-.13-.38-.14-.5s0-.47,0-.63a7.27,7.27,0,0,0-.73-.8c0-.05-.05-.12-.1-.18-.35-.38-.76-.68-1.12-1.05.09,0,.06-.17.06-.17a1.06,1.06,0,0,1,.38.07,4.8,4.8,0,0,1,1,.8s.12,0,.14,0Zm2.1,2.93a1.57,1.57,0,0,0,.08.31,17.18,17.18,0,0,1,1,2.89c0,.26,0,.53-.31.44s-.38-.79-.46-1c-.2-.48-.37-1-.56-1.47s-.43-1-.62-1.44c-.11,0-.09.18-.07.24.35,2.13.73,4.35,2.58,5.74.08.06.48.4.56.31a2.19,2.19,0,0,0-.13-.46A14.4,14.4,0,0,0,101,52.9a1.31,1.31,0,0,0-.31-.43Z" />
  <path
    d="M69.51,104.05c-.05,0,0-.07-.18.14a5.83,5.83,0,0,1-3.63,2.47,13.6,13.6,0,0,1-1.33.33c-.12,0-.38-.07-.39-.18a.67.67,0,0,1,.25-.16s0,0,.07,0a9.89,9.89,0,0,0,1.27-.47,6.92,6.92,0,0,0,4.21-4.88,5.3,5.3,0,0,0,.14-1.53,1.61,1.61,0,0,0-.07-.69c-.08-.16-.69-.64-.68-.78a2.71,2.71,0,0,0,0-.49,6.47,6.47,0,0,0-1-2.2c-.05-.05,0-.12-.05-.13s-.1,0-.12,0,0-.09,0-.14a3.21,3.21,0,0,0-1.88-1.13.48.48,0,0,0-.14-.06,1,1,0,0,0-.44.06,5,5,0,0,0-2.12.89c-.19.15-.39.57-.59.25-.1-.17.08-.4.2-.5s1.2-.88,1.27-.9c.28-.08.77-.33,1-.36a4,4,0,0,1,1.46,0A4.69,4.69,0,0,1,69,95.56a6.76,6.76,0,0,1,.78,2.15c.12.59.14.4.44.81a3.88,3.88,0,0,1,.33,2.56,6.41,6.41,0,0,1-1,2.73A2.16,2.16,0,0,0,69.51,104.05Z" />
  <path
    d="M86.42,104.05l.07.24c0,.25-.18.41-.35.56a7.6,7.6,0,0,1-6.55,1.94,6.33,6.33,0,0,1-1.49-.47c-.57-.39-1.55-.27-2.27-.38l-.87-.22a.28.28,0,0,1,0-.2c.11-.17.23,0,.35,0l.7.07a16.23,16.23,0,0,0,2.1,0c.07,0,.39-.28.5-.34a11.1,11.1,0,0,1,7.19-1.34l.59.15Zm-.77.42c-.2,0-.41,0-.6,0a10.34,10.34,0,0,0-5.64.92l-.33.2c.13,0,.21-.07.31-.07.55-.06,1.07,0,1.62-.14a20.58,20.58,0,0,1,2.58-.49c.12,0,.11-.1.31,0s0,.3-.11.38a3.56,3.56,0,0,1-1,.3,25.52,25.52,0,0,1-3.08.55c-.12,0-.26,0-.39,0l.32.13A7.13,7.13,0,0,0,85,105.07l.7-.6Z" />
  <path
    d="M94,75.92a.12.12,0,0,1,.09,0,2,2,0,0,1,.66.74,1.3,1.3,0,0,1,.09.55c0,.14-.17.17-.15.31l-.88.35c-.12.08-.37-.08-.38-.06a.83.83,0,0,1-.1.27,1.49,1.49,0,0,1-.17.18,1.1,1.1,0,0,1-.87,0,3.88,3.88,0,0,1-1.09-.84,2.29,2.29,0,0,0,.08.87c.06.17.36.7.51.74s.26-.15.39-.24a2,2,0,0,1,.38-.16.49.49,0,0,0,.14.06c.06,0,.12,0,.2,0s.35.2.57.13.34-.77.49-.77a.79.79,0,0,1,.17.19,1.93,1.93,0,0,1-.24.8c-.16.24-.36.25-.62.28,0,0,0,.06-.09.06s-.53-.18-.68-.13-.19.22-.29.27l-.42.13s0,0-.07,0a.76.76,0,0,1-.45-.19,2.47,2.47,0,0,1-.62-1.13,3.68,3.68,0,0,1-.08-.41,5.22,5.22,0,0,0,0-.56c0-.13-.68-.51-.84-.7s-.46-.83-.07-1.12.81,0,.84,0-.09-.51-.07-.67a1.12,1.12,0,0,1,.8-.8,3.31,3.31,0,0,1,.63,0,2.26,2.26,0,0,1,.28.21c.1.08.24.34.28.35s.38-.26.56-.28a1,1,0,0,1,1.08.53,2.3,2.3,0,0,1,.07.83s-.15.24-.13.25Zm-.49,1.61c.08.08.72-.15.8-.28s0-.41-.14-.56-.82-.41-.73-.8c0-.15.26-.31.28-.5s-.26-.66-.45-.59-.4.48-.6.59a1.58,1.58,0,0,1-.31.1c-.34-.06-.6-.95-1-.83a1,1,0,0,0-.32.39c0,.13.06.64.24.58s.06-.06.14-.07a1.51,1.51,0,0,1,1.43.82c.09.12,0,.05.15.13a2.92,2.92,0,0,1,.48.78c0,.07,0,.22,0,.23Zm-2.66-.71s-.07-.16-.07-.24,0-.35,0-.45a2.44,2.44,0,0,0-.7-.28.22.22,0,0,0-.1.24A3.39,3.39,0,0,0,90.89,76.82Zm1.46.08s-.13-.31-.17-.35-.6-.55-.77-.28.44,1.15.74,1.36a2.41,2.41,0,0,0,.8.31c.2-.06.29-.5.24-.7a1,1,0,0,1-.58.28c-.08-.09-.19,0-.28-.07s-.66-.37-.6-.59a.51.51,0,0,1,.31-.17s.28.24.31.2Z" />
  <path
    d="M78,45.61c.07-.06.69.37.81.42A6.62,6.62,0,0,0,81,46a7.6,7.6,0,0,0,4.22-3.47,4.35,4.35,0,0,0,.28-2.92,2.09,2.09,0,0,0-1.21-1.09,6.67,6.67,0,0,0-1.19-.08h-.27c-.49,0-.91.05-1.4.08-.07,0-.08.12-.22-.07s-.1-.32.11-.46a2.24,2.24,0,0,1,.86-.18c1.19-.23,2.07-.46,3.12.32A2.8,2.8,0,0,1,86.48,41a7,7,0,0,1-5.42,5.62,3.48,3.48,0,0,1-2.89-.59c-.1-.09-.18,0-.25-.24a.56.56,0,0,1,0-.21Z" />
  <path
    d="M81.73,77.67c0,.16.2.21.14.38a1.36,1.36,0,0,1-.24.24s0-.05-.07-.06l-.7-.07a10.5,10.5,0,0,0-2.1-.15c-.07,0-.11.06-.14.07a.74.74,0,0,0-.45.11,5.8,5.8,0,0,0-.52.45,2.9,2.9,0,0,0-.46,2.07c0,.19.11.64.15.83A5.8,5.8,0,0,0,78.83,84a8.45,8.45,0,0,0,1.64,1.3,5.46,5.46,0,0,0,1.37.59c.15,0,.33,0,.49,0a5.85,5.85,0,0,0,1.26.08c.15,0,.8-.44.87-.36a.57.57,0,0,1,0,.28,2.85,2.85,0,0,1-1.06.56,1.78,1.78,0,0,1-.69,0,5.28,5.28,0,0,1-.7.07,6.51,6.51,0,0,1-3.84-2.16,7.66,7.66,0,0,1-1.21-1.66,8.06,8.06,0,0,1-.58-2.15,3.85,3.85,0,0,1,.3-1.82,3.39,3.39,0,0,1,1.25-1.27A4.3,4.3,0,0,1,79,77.1c.08,0,.12.07.21.08s.54,0,.76,0,.73.25,1.06.34S81.49,77.62,81.73,77.67Z" />
  <path
    d="M65.45,45.69a.5.5,0,0,1,0,.27c-.08.24-.27.56-.37.82a12.75,12.75,0,0,0-.85,3.56c0,.08-.06.12-.06.14s.09.09.12.15A9.52,9.52,0,0,1,65.11,53,7.42,7.42,0,0,1,65,56.93a8.55,8.55,0,0,1-.22,1c-.06.11-.25.28-.39.25s-.3-.4-.37-.53A13.66,13.66,0,0,1,63,55a8.28,8.28,0,0,1,.43-4.48,1.74,1.74,0,0,0,.13-.77,9.68,9.68,0,0,1,1.36-3.89,1,1,0,0,1,.29-.21c.08,0,.13.1.23.07Zm-1,11.68a3,3,0,0,1,.14-.59,10,10,0,0,0,.22-2.1s.06-.08.06-.14a6.83,6.83,0,0,0-.14-.85A13,13,0,0,0,64.26,52l-.14-.25c0,.12,0,.26,0,.39.1.84.07,1.69.15,2.51,0,.09.08.14.07.21s-.28.18-.42.11a1.38,1.38,0,0,1-.08-.45c-.12-.71-.11-1.45-.2-2.17,0-.14-.13-.28-.07-.46l-.08.45a9.29,9.29,0,0,0-.14,1.76,10.78,10.78,0,0,0,.93,3.14C64.3,57.26,64.32,57.39,64.41,57.37Z" />
  <path
    d="M63.29,105.45c.15.06.29-.07.39-.07s.11.05.13.05A4.57,4.57,0,0,0,66,104.12c0-.05,0-.12,0-.14s.11,0,.13,0,0-.08,0-.13a7.63,7.63,0,0,0,1.22-2.69,9.93,9.93,0,0,0,.21-1.12,4.85,4.85,0,0,0-1.26-3.57,2.53,2.53,0,0,0-.6-.38c-.08,0-.17,0-.26,0s-.35-.13-.43-.13-.46.12-.55.15a9.48,9.48,0,0,0-2.21,1.5c-.05,0-.12,0-.13,0s.06.2-.19.13a.33.33,0,0,1-.24-.44c0-.06.72-.75.83-.85s.13,0,.14,0,0-.09,0-.13a4.39,4.39,0,0,1,1.2-.9,2.24,2.24,0,0,1,1-.22,3.67,3.67,0,0,1,.42.07,2.47,2.47,0,0,1,1.5.59,3.57,3.57,0,0,1,.71,1,6.37,6.37,0,0,1,.69,1.9,7.63,7.63,0,0,1-2.1,6.09,6.48,6.48,0,0,1-1.78.94,5.24,5.24,0,0,1-1,0C63.41,105.7,63.23,105.49,63.29,105.45Z" />
  <path
    d="M82.65,52.75c0,.06.26.11.38.28a6.62,6.62,0,0,1,1.22,4.1c0,.07-.07.12-.07.2a16.36,16.36,0,0,1-.36,3.21c0,.06-.12.38-.13.39a1.23,1.23,0,0,1-.25.08c-.25,0-.34-.27-.44-.47-.3-.62-.65-1.39-.91-2a7.71,7.71,0,0,1-.22-5.23A2.48,2.48,0,0,0,82,53a3.25,3.25,0,0,0-.35-1.31,7.31,7.31,0,0,0-.42-.84c-.12-.19-.39-.29-.34-.53.19-.06.25-.1.42,0a4,4,0,0,1,1,1.55c.07.15.26.83.29.86Zm.76,7.42c0-.12,0-.25,0-.38.1-.75.24-1.55.27-2.31a7.48,7.48,0,0,0-.42-2.93L83,54.08c0,.16.06.27.08.38.08.54.17,1.14.21,1.69,0,.3.09.92-.32.8-.24-.06-.21-.66-.32-.87-.08-.51-.17-1-.27-1.55l0-.37-.18.52a9.19,9.19,0,0,0,1.11,5.19c0,.07,0,.31.15.31Z" />
  <path
    d="M60.7,48.83a2.23,2.23,0,0,1,.08.24c0,.13,0,.29,0,.42s.12.17.14.28a11.6,11.6,0,0,1-.08,2c-.1,3-.15,6.15,0,9.17,0,.63.12,1.33.15,2a8.28,8.28,0,0,1,0,1.32s0,.1-.06.14a.49.49,0,0,1-.18.11c-.07,0-.22-.3-.23-.39,0-.27,0-.62-.08-.9a70.15,70.15,0,0,1-.57-10.78c0-.75.14-1.57.13-2.31a1.81,1.81,0,0,1,.15-.78c.07-.22,0-.41.33-.51l.23.07Z" />
  <path
    d="M80.69,34c-.07-.06-.3.07-.38.08-.45.06-.59-.5-.52-.87s.39-.78.41-1-.34-.59-.28-1a.77.77,0,0,1,.06-.15,1.76,1.76,0,0,1,1.43-1.36,2.69,2.69,0,0,1,1,0s.06.06.08.06.37-.33.45-.38a1.27,1.27,0,0,1,.73-.17,1.08,1.08,0,0,1,.59.6,1.36,1.36,0,0,1,0,.28,2.7,2.7,0,0,1-.31,1.78c0,.05-.17.14-.17.18s0,0,0,.08,0,.24,0,.34.07.12.08.2a1.13,1.13,0,0,1-.61,1.22A2.79,2.79,0,0,1,83,34a3.31,3.31,0,0,0-.63,0c-.15,0-.57.71-.8.86a.74.74,0,0,1-.59.1c-.34-.09-.22-.93-.25-1Zm.42.5c.21-.05.22-.17.31-.28s.28-.34.42-.49,0-.13.1-.18c.4-.35,1,0,1.33-.43,0-.22.1-.4.08-.62s-.15-.56-.14-.63.34-.5.4-.71a3.09,3.09,0,0,0,.09-.68s.06-.07.07-.15-.11-.48-.25-.52-.62.36-.85.48-.65-.18-1-.14l-.34.08c-.5.17-1,.66-1,1.22,0,.25.26.47.21.74l.22-.52a2,2,0,0,1,2-1,.72.72,0,0,1,.38.45c0,.18-.12.41-.07.62a2.35,2.35,0,0,1-.38.6s0,.12,0,.13-.08,0-.13,0a1.32,1.32,0,0,1-1,.46.85.85,0,0,1-.24-.08s-.06-.2-.07-.23a1.18,1.18,0,0,1,.49-1.06c.17-.12.56-.15.49.07s-.33.44-.42.63.23,0,.28-.07a2.24,2.24,0,0,0,.48-.7c.08-.34,0-.35-.28-.28a2.07,2.07,0,0,0-.87.45,1.87,1.87,0,0,0-.28.35,3,3,0,0,0-.25.81c0,.1.09.35.19.38h.2s0,.06.08.06.25-.18.41-.14,0,.24,0,.35-.14.06-.18.07-.5,0-.52,0,0,.13,0,.18S81,33.89,81,34a1.52,1.52,0,0,0,.07.52Zm-.21-1.05c-.35,0-.28-.47-.28-.74,0-.09,0-.26-.07-.24,0,.22-.21.4-.27.6,0,0-.06.22-.08.28s.12.19.07.31a2.06,2.06,0,0,0,.44-.08C80.77,33.56,80.92,33.51,80.9,33.44Z" />
  <path
    d="M80.94,49.26c.09,0,.38,0,.38.1a9.41,9.41,0,0,1-.6.73,10.84,10.84,0,0,0-.66,1.24c0,.07.06.11.07.2a9.1,9.1,0,0,1-1.29,5.21,7.61,7.61,0,0,1-1.5,1.86.51.51,0,0,1-.39.1.57.57,0,0,1-.18-.31c0-.08.07-.12.08-.21.2-2,.55-5,1.92-6.61a1.33,1.33,0,0,1,.76-.43c.1,0,.21-.37.28-.48a4.49,4.49,0,0,1,1-1.23c.06,0,.13-.15.18-.17ZM79.5,52.61a3.89,3.89,0,0,1-.27.88c-.16.53-.23,1.09-.44,1.6-.09.22-.25.6-.51.39s0-.45,0-.72a9.3,9.3,0,0,0,.34-1.19L79.15,52a.52.52,0,0,0-.2.19c-.93,1.25-1.26,3.51-1.47,5,0,.08-.07.12-.08.21s0,.26,0,.38l.39-.42a9.32,9.32,0,0,0,1.78-4.44c0-.06,0-.34-.08-.32Z" />
  <path
    d="M67.48,37.64a2.36,2.36,0,0,1-.15.38c-.28.45-.84,1-1.42.95a.38.38,0,0,1-.14-.06s-.34.31-.45.38a1.24,1.24,0,0,1-.52.18s-.06.05-.08.05-.06-.06-.13-.06h-.21a1.14,1.14,0,0,1-.39-.52c0-.18.09-.37.07-.39s-.44.05-.65-.08c-.68-.41-.38-1.14,0-1.64.19-.23.64-.5.74-.66s0-.2,0-.31a1.89,1.89,0,0,1,1.64-1c.1,0,.34.22.31.31a1,1,0,0,1-.18.18c-.1,0-.14-.12-.21-.14a2.36,2.36,0,0,0-.8.31,1.67,1.67,0,0,0-.41.49c0,.11.21.28-.08.49a3.67,3.67,0,0,0-.66.59c-.14.19-.38.58-.31.8s.89,0,1.08.32-.36,1,.34.84a1.5,1.5,0,0,0,.5-.27s.09,0,.1,0,0-.17,0-.24a1.12,1.12,0,0,1,.24-.4s.23.07.24.08-.1.31.1.27a1.28,1.28,0,0,0,.34-.14,2.44,2.44,0,0,0,.6-.6c0-.09,0-.2,0-.31s.42-.35.53-.51A2.12,2.12,0,0,0,68,35.36a.49.49,0,0,0-.32-.31,1.4,1.4,0,0,0-.66.24c0,.06.08,0,.15.06l.2.22a1.51,1.51,0,0,1-.24,1.09c0,.05-.16.12-.17.17s.09.21.06.27-1.06.76-1.29.81c-.81.13-1.21-.26-1.07-1.07a2.1,2.1,0,0,1,.9-1.13,11,11,0,0,1,1-.7c.19-.12.54-.35.73-.45l.28-.08a1,1,0,0,1,.93.61s0,.13,0,.19a1.15,1.15,0,0,1,.06.5,2.73,2.73,0,0,1-.87,1.79A.37.37,0,0,1,67.48,37.64ZM65.81,37c.17.15.75-.33.87-.49s.37-.71.14-.77a3.2,3.2,0,0,0-.41.07c-.52.18-1.47,1-1.3,1.57.08.29.6.14.83.1l-.42-.17c-.37-.24.17-.89.42-1s.33-.05.35.14-.05.07-.14.14-.39.42-.34.46Z" />
  <path
    d="M57.28,89.71c.07.21.24.55.46.62a5.57,5.57,0,0,1,.73.28s0,.11,0,.13a4.23,4.23,0,0,0,.42.22s0,.09,0,.14.09.06.11.11,0,.13,0,.2.05.07.06.14a.78.78,0,0,1-.77.81c0,.29.21.44.07.73a2.23,2.23,0,0,1-.25.32,2.48,2.48,0,0,1-.41.08s-.05.05-.08.06l-.61-.14c-.11,0-.27-.2-.29-.2s-.08.1-.15.12c-.53.24-1.09-.12-1.49-.44-.06,0-.32-.22-.34-.25s.11,0-.18-.15a1.79,1.79,0,0,1-.59-.37c-.06,0-.13,0-.14,0s0-.09,0-.14a1.39,1.39,0,0,1-.21-.21,4.35,4.35,0,0,1-.52-1.09c0-.07.12-.18,0-.33.08-.09.16-.49.21-.53s.09,0,.14,0,.1-.13.17-.16l.22-.08c.06,0,.1.05.13.05s.07-.06.13,0a13.78,13.78,0,0,1,1.69.54s.05-.05.06-.05a3.23,3.23,0,0,1,1.26.76,1.54,1.54,0,0,1,.31.94,1.75,1.75,0,0,1-.16.25,1.32,1.32,0,0,1-1.06.28l-.21,0c-.32,0-.63-.25-.94-.32.09-.28,0-.39-.27-.43,0-.18-.2-.25-.28-.39a.91.91,0,0,1-.08-.83c0-.07.09,0,.14,0s-.08-.13-.11-.13a3.21,3.21,0,0,0-.62,0s-.16.2-.17.24a2,2,0,0,0,.14.83,2.45,2.45,0,0,0,.38.53s0,.12,0,.13.54.2.7.32.23.32.38.46a3,3,0,0,0,.64.34,2.33,2.33,0,0,0,.45,0c.06-.07-.08-.27-.07-.28s.11,0,.13,0,0-.21.12-.14.16.26.17.28.06-.12.14.17.14.06.18,0,.08.1.14.12a1.65,1.65,0,0,0,.73-.06c0-.08,0-.18,0-.25,0-.24-.29-.33-.21-.63S58,92,58.08,92a1.28,1.28,0,0,1,.47-.14c0-.15.11-.28.06-.44a4.44,4.44,0,0,0-.48-.5,5.69,5.69,0,0,0-.68-.37c-.07,0-.15,0-.23,0a2,2,0,0,1-.14-.22c0-.08.06-.12.06-.14a1.83,1.83,0,0,0-.2-.21,2,2,0,0,0-1.22-.31c-.06,0,0,.18-.14.2s-.15-.1-.25-.06c0-.19.07-.21.13-.33s0-.08,0-.09h.24a.88.88,0,0,1,.14-.07,4.42,4.42,0,0,1,.7.08,5.42,5.42,0,0,1,.73.35Zm-1.12,2.23c.09,0,.12,0,.21,0a.27.27,0,0,0,.17,0,.69.69,0,0,0,.36-.21c.17-.28-.24-.71-.46-.88a2.59,2.59,0,0,0-1.08-.38c-.49,0-.81,0-.42.49a2.29,2.29,0,0,0,.63.48h.59c0-.06,0-.19-.11-.21a2.57,2.57,0,0,0-.52-.21c-.06,0,.13-.26.18-.28a3.52,3.52,0,0,1,.7.35l.17.25c.09.31-.28.38-.42.59Z" />
  <path
    d="M91.52,41.77c-.07.26.08.45.13.67s0,.21.06.27,0,0,0,.07.11.07-.06.17-.13,0-.2-.14A2.6,2.6,0,0,1,91,41.37a4.49,4.49,0,0,0,.06-.61,1.15,1.15,0,0,1-.06-.5,2.85,2.85,0,0,1,.17-.46,3.55,3.55,0,0,1,.71-.62A1.29,1.29,0,0,1,92.6,39l.49.07a1.36,1.36,0,0,1,.59.25c0,.08.07.2.07.21a1.36,1.36,0,0,1-.24.24s0-.06-.07-.06a2.7,2.7,0,0,0-.9-.07,3.57,3.57,0,0,0-.46.16,1.72,1.72,0,0,0-.27.5,1.28,1.28,0,0,0,.1.73c0,.11.2.1.13.28l.88.95c.07.29-.2.51-.27.77s0,.32.17.37.25.18.42.28a5.43,5.43,0,0,0,.92.35c.31,0,.65-.08.93.11a4.07,4.07,0,0,0,1.43.81c.61.08.57-.18.72-.67-.12-.15-.24-.77.12-.66a2,2,0,0,1,.21.2l.17.39a1.4,1.4,0,0,1-.14.83,3.64,3.64,0,0,1-.52.52s0,0-.06,0a3.52,3.52,0,0,1-.57.13c-.07,0-.11-.06-.14-.07a1.14,1.14,0,0,1-.57-.2s-.1,0-.16,0-.64-.49-.74-.52-.48,0-.68,0a5.78,5.78,0,0,1-1-.35c-.19-.09-.38-.29-.63-.42a2.9,2.9,0,0,1-.52-.8c-.07-.33.16-.7.13-.83s-.13-.12-.18-.18a1.32,1.32,0,0,0-.45-.49Z" />
  <path
    d="M85.23,29.17a.89.89,0,0,1,.38-.07,6.27,6.27,0,0,1,.46.45c1.44,1.56,2.29,2.47,2.16,4.76,0,.08-.06.13-.07.21a6.87,6.87,0,0,0,.28,1.68c0,.11,0,.35-.1.38-.38.11-.33-.29-.39-.51s-.19-.56-.27-.86c0-.11,0-.21,0-.31s-.54-.37-.73-.52A4.76,4.76,0,0,1,85.8,33a5.13,5.13,0,0,1-.64-3.63,1.15,1.15,0,0,1,.07-.24Zm.35.7c0,.05,0,1,0,1.22,0,0,.06,0,.07.08a4.31,4.31,0,0,0,.88,2.06,3.19,3.19,0,0,0,.45.45c.08.07.44.47.34.08a21.93,21.93,0,0,0-.94-2.07c-.08-.25,0-.41.21-.21a5.35,5.35,0,0,1,.65,1,3.76,3.76,0,0,1,.36.79c.12,0,.09-.26.08-.32a6.42,6.42,0,0,0-1.86-3C85.78,30,85.63,29.81,85.58,29.87Z" />
  <path
    d="M104.91,45.14a1.55,1.55,0,0,1,.48,0c.06,0,.14.23.17.32a3.53,3.53,0,0,1-.08.4,4.51,4.51,0,0,1-3.17,2.36l-.56.07c-.22,0-.77-.18-1-.15a5.11,5.11,0,0,1-2,.22c-.14,0-.39,0-.45-.18s.17-.29.38-.37c.41.12.77-.06,1.19,0,.81-.48,1.47-1.27,2.31-1.73a9.75,9.75,0,0,1,2.66-.91Zm-2.7,2.51a3.55,3.55,0,0,0,1.19-.39,4,4,0,0,0,.83-.7c.29-.28.66-.54.71-1a2.56,2.56,0,0,1-.59.15,7.78,7.78,0,0,0-2.56,1.15c-.21.15-.4.33-.63.49s-.11.13,0,.11.35-.11.48-.16a10,10,0,0,0,1.55-.82c.08,0,.31-.22.38-.14s0,.22-.07.31-.52.35-.7.56Z" />
  <path
    d="M70.7,42.32c0,.22-.1.75.11.84,0,0,.1,0,.17,0a1.26,1.26,0,0,1,.34.42,2.94,2.94,0,0,1,.08.63,4.19,4.19,0,0,1-.53,1.36c-.08.12-.42.37-.45.46s0,.18,0,.27a3.24,3.24,0,0,1-.51,1.17,3.87,3.87,0,0,1-.43.27,1,1,0,0,1-.91-.2s-.08,0-.09,0,0-.07,0-.09a.93.93,0,0,1-.28-.71c0-.08.16-.13.25-.11s.28.78.83.63c.22-.07.46-.73.52-.95a2.79,2.79,0,0,1,.18-.73c.1-.14.31-.27.43-.41a2.59,2.59,0,0,0,.44-1.29c-.06,0,0-.18-.06-.18s-.31-.06-.38-.08a1.09,1.09,0,0,1-.24-.24c-.07-.24,0-.74,0-1,0,0,0-.06-.06-.09a.91.91,0,0,0-.29-.62c-.52-.39-.93,0-1.29.39,0,0-.06.18-.14.21-.23.06-.36-.09-.31-.32a3.58,3.58,0,0,1,.62-.84,1.63,1.63,0,0,1,1.09-.18,1.33,1.33,0,0,1,.63.42,9.16,9.16,0,0,1,.77.92c.13.22.18.51.3.73a1.56,1.56,0,0,1-.17.18C71.15,43.17,70.87,42.4,70.7,42.32Z" />
  <path
    d="M93.76,40.72c-.06.05,0,.53.09.63s.33.22.46.31a3.62,3.62,0,0,0,.42.36,4.82,4.82,0,0,0,.63.24c.12-.11-.31-.35-.35-.39a2.45,2.45,0,0,1-.28-.28s.1-.07.07-.17.23-.07.25-.07.22.16.29.2.1,0,.17,0a1.9,1.9,0,0,1,.38.46c0,.06.13.1.17.18l.07.2a1.3,1.3,0,0,1-.1.25,1.71,1.71,0,0,1-.35.21,1.41,1.41,0,0,1-.41,0,4.85,4.85,0,0,1-.56-.21,4.37,4.37,0,0,1-1.27-1,1.8,1.8,0,0,1-.06-.22s-.14-.09-.18-.17a2.6,2.6,0,0,1-.07-.56.72.72,0,0,1,.2-.42,1.56,1.56,0,0,1,1-.31,3.85,3.85,0,0,1,1,.29,5.51,5.51,0,0,1,1.48,1.17,1.8,1.8,0,0,0,.06.22s.12.1.17.18l.13.27s0,.05,0,.07.05.08.05.14a1.16,1.16,0,0,1-.1.67s-.29.29-.32.31-.13,0-.17,0-.37.22-.5.26a4,4,0,0,1-.69,0c-.2-.06-.08-.37.07-.42s.12.07.21.07l.4-.08c.31-.08.65-.31.61-.66a4.42,4.42,0,0,0-.15-.48,6.4,6.4,0,0,0-.41-.5A4,4,0,0,0,94,40.7h-.23Z" />
  <path
    d="M98,43.8l.24-.08a1.23,1.23,0,0,0,.55-.07,3,3,0,0,0,.65-.34c0-.07,0-.14,0-.17s.14-.11.14-.22-.06-.12-.07-.15a1.2,1.2,0,0,0,0-.27,3.14,3.14,0,0,0-.24-.39c0-.06,0-.14-.06-.21s-.49-.44-.53-.46l-.46-.23a1.29,1.29,0,0,0-.55,0c-.07,0-.31-.17-.31-.23,0-.24-.1-.17-.18-.32s-.29-.45-.42-.7c0,0-.43-.37-.45-.39s-.13,0-.17,0a2.06,2.06,0,0,0-.85-.26c-.09,0-.19.1-.31.06v.35c-.11,0-.16.09-.24.07s-.28-.39-.25-.6c0,0,.07-.23.07-.24a.34.34,0,0,0,.14,0s0-.08.11-.1a2.49,2.49,0,0,1,1.43,0,3.06,3.06,0,0,1,.94.66,5.33,5.33,0,0,0,.42.56c.08.14.06.28.24.39s.31,0,.45,0a4.28,4.28,0,0,1,1.41,1c0,.07,0,.14.06.22s.18.14.24.25a3.16,3.16,0,0,1,.22.55,3.28,3.28,0,0,1,0,.7,3.29,3.29,0,0,1-.23.39l-.36.27a5,5,0,0,1-.49.2s0,0-.06,0c-.37.12-1,.44-1.15-.05.07,0,0-.16.06-.17Z" />
  <path
    d="M79.76,37.79a1.68,1.68,0,0,1,.4.07c.32.09.7.32.6.72s-.53-.2-.67-.24c-.39-.08-.67.24-.94.45a6.76,6.76,0,0,0-1.53,1.83,7.45,7.45,0,0,0-1,2.66c0,.19,0,.23,0,.35a1.08,1.08,0,0,0,.12.44,5.05,5.05,0,0,0,.35.5c.07.09.61.33.31.52-.14.09-.43-.11-.56-.22A3.74,3.74,0,0,1,76,43.34a4.61,4.61,0,0,1,.43-2A9.4,9.4,0,0,1,77.89,39a5,5,0,0,1,1.51-1.15,2.17,2.17,0,0,1,.26,0s.06-.05.09-.06Z" />
  <path
    d="M92.71,44.57a1.48,1.48,0,0,1,.42,0s0,.17.13.24A19.73,19.73,0,0,0,96,46.23a3.31,3.31,0,0,0,2,.14.92.92,0,0,0,.71-.48c.07-.1.21-.13.19-.3.2-.29.08-.64,0-1,.17-.24.35-.34.53,0a1.78,1.78,0,0,1,.11,1.09s0,.05,0,.07a2.41,2.41,0,0,1-.3.6c-.06.08-.53.56-.59.6s-.14,0-.22.06-.12.17-.17.17a5,5,0,0,0-.83.15,5,5,0,0,1-.64-.06s-.07.06-.12,0A5.74,5.74,0,0,1,95,46.6a7.16,7.16,0,0,1-1.29-.88,7,7,0,0,1-.9-.91C92.72,44.74,92.66,44.61,92.71,44.57Z" />
  <path
    d="M84.59,78.37a.23.23,0,0,0,0,.14,8.06,8.06,0,0,1,1.42,2.2,12.6,12.6,0,0,1,.55,1.82c0,.13,0,.17,0,.28a3.18,3.18,0,0,1,0,.62,4,4,0,0,1-.52.89.79.79,0,0,0,0,.13s-.09,0-.13,0-.14.25-.28.35-.63.37-.7.14.06-.15.14-.21a2.85,2.85,0,0,0,.52-.45,4.14,4.14,0,0,0,.31-.46c0-.06,0-.13,0-.2a.48.48,0,0,0,.06-.14c0-.19-.09-.29-.07-.43s.08-.13.08-.2-.12-.53-.15-.64a8.79,8.79,0,0,0-1.08-2.41,3.86,3.86,0,0,0-1.53-1.62A1.74,1.74,0,0,0,83,78.1l-.26.07c-.11,0-.21.21-.36.27s-.1-.15-.17-.17a1,1,0,0,1,.28-.49c.18-.14.22,0,.3,0s.34-.14.43-.14.11.06.15.07a1.15,1.15,0,0,1,.19,0,3.5,3.5,0,0,1,.88.66c.05,0,.12,0,.14,0Z" />
  <path
    d="M61.61,98.24h-.38c-.07,0-.12-.06-.14-.06l-.25.09c-.12.06-.13.23-.14.25s-.11,0-.13,0a5.2,5.2,0,0,0-.29,1.07,7.45,7.45,0,0,0,.49,4.5c0,.11.06.23.1.31a2.39,2.39,0,0,0,1.27.7c.08,0,.36,0,.38,0a1.31,1.31,0,0,1,0,.28l-.24.07a3.06,3.06,0,0,1-2-.9,2.62,2.62,0,0,1-.32-.73,8.66,8.66,0,0,1-.34-4.35,5.11,5.11,0,0,1,.52-1.23,1.8,1.8,0,0,1,.91-.49C61.29,97.72,61.77,98.09,61.61,98.24Z" />
  <path
    d="M68.25,45.33a2.46,2.46,0,0,1-.07-.24A2.2,2.2,0,0,1,68.32,44c.11,0,.29-.15.35,0s-.12.49-.07.74l.27-.47c0-.38.29-.87,0-1.22-.1-.14-.17-.14-.32,0a2.76,2.76,0,0,0-.7,1.6s-.06.07-.06.14a1.47,1.47,0,0,0,.17.88.93.93,0,0,0,.29.21,3.47,3.47,0,0,0,.52-.17l.25-.17a.7.7,0,0,0,0-.14s.4,0,.34.17-.49.49-.74.59a.88.88,0,0,1-1.27-.67,3.3,3.3,0,0,1,.14-1.94,1.64,1.64,0,0,1,1.08-1.09.66.66,0,0,1,.79.53,2.79,2.79,0,0,1-.37,2.12.57.57,0,0,1-.57.29l-.23-.08Z" />
  <path
    d="M67.69,43c-.1,0-.16.07-.17.07s-.17-.24-.28-.21a4.08,4.08,0,0,0-.45.47,5.62,5.62,0,0,0-.22.83l.21,1.19c-.06.23-.27.24-.38.38a2.5,2.5,0,0,0-.24,1c.08.29.19.86.53.94s.91-.27,1.25-.48c.16.08.23.08.17.3s-.52.43-.69.5a3.86,3.86,0,0,1-.8.24c-.15-.09-.34-.12-.49-.22a1.69,1.69,0,0,1-.39-.52,4.57,4.57,0,0,1-.14-1.17,4.31,4.31,0,0,1,.31-1c0-.07.23-.17.25-.24a6.24,6.24,0,0,0-.14-1,2.74,2.74,0,0,1,.07-.62,2.05,2.05,0,0,1,.7-1c.45-.32,1-.18.91.45Z" />
  <path
    d="M67.83,49.11s0-.07,0-.09-.55-.8-.23-.88.3.18.42.34a1.18,1.18,0,0,0,1,.43,3,3,0,0,0,1.68-1.69,7.66,7.66,0,0,0,.67-2.34c.4-.49.37.23.35.56a7.54,7.54,0,0,1-.5,2.29,3.49,3.49,0,0,1-1,1.28,1.86,1.86,0,0,1-1.72.39.77.77,0,0,1-.52-.26s-.12,0-.13,0Z" />
  <path
    d="M65,39.73h.32c.06,0,.29.24.42.27H66s.06-.2.1-.29a2.11,2.11,0,0,1,.36-.41c.21-.06.41.12.62.07s.65-1,.73-1.31.07-.58.19-.58.23.14.23.17a.26.26,0,0,0-.06.14A4,4,0,0,1,68,39c-.18.48-.51.95-1.07.89-.14,0-.18-.17-.31,0-.27.44-.2.67-.88.59a1.18,1.18,0,0,1-.7-.42A1,1,0,0,1,65,39.73Z" />
  <path
    d="M54.63,93.27s.1,0,.13,0a.62.62,0,0,0,.07.17,5.66,5.66,0,0,0,.49.49l.25.17.26-.08c.09,0,.26-.23.36-.2s.31.27.46.38a1.54,1.54,0,0,0,.24.17s0,0,.07-.06.16,0,.17,0,0-.11,0-.13a.43.43,0,0,0,.24-.14c0-.06,0-.13,0-.14s.27-.05.34-.08a.85.85,0,0,1-.1.57,2.37,2.37,0,0,1-.57.41,1.15,1.15,0,0,1-.19,0s-.06,0-.09.06c-.2,0-.63-.56-.69-.56a2,2,0,0,1-.29.21c-.08,0-.19,0-.27.06L55,94.31c0-.19-.11-.1-.18-.2a5,5,0,0,1-.58-1c0-.08-.07-.36-.09-.37s-.11,0-.13,0,.22-.21.24-.21a1.82,1.82,0,0,1,.22.28,4.08,4.08,0,0,0,.17.42Z" />
</svg>