<svg id="Capa_1" data-name="Capa 1" xmlns="http://www.w3.org/2000/svg" xmlns:xlink="http://www.w3.org/1999/xlink" viewBox="0 0 175 146"><defs><style>.cls-1{fill:none;}.cls-2{clip-path:url(#clip-path);}</style><clipPath id="clip-path"><rect class="cls-1" x="52.96" y="30.99" width="71" height="77"/></clipPath></defs><path d="M94.5,75.78H90.69V69.23a.61.61,0,0,0-.61-.61H86.81a.61.61,0,0,0-.61.61v6.55H82.4a.61.61,0,0,0-.61.61v3.3a.61.61,0,0,0,.61.61h3.8V99.76a.6.6,0,0,0,.61.6h3.27a.6.6,0,0,0,.61-.6V80.3H94.5a.61.61,0,0,0,.6-.61v-3.3A.6.6,0,0,0,94.5,75.78Zm-.61,3.29H90.08a.61.61,0,0,0-.6.62V99.15H87.42V79.69a.61.61,0,0,0-.61-.62H83V77h3.81a.61.61,0,0,0,.61-.61V69.85h2.06v6.54a.61.61,0,0,0,.6.61h3.81Z"/><path d="M87,47.28h2.84a.6.6,0,0,0,.6-.61V41.33a1.89,1.89,0,0,0-1.88-1.9h-.28a1.9,1.9,0,0,0-1.89,1.9v5.34A.61.61,0,0,0,87,47.28Zm.6-6a.69.69,0,0,1,.68-.68h.28a.68.68,0,0,1,.67.68v4.73H87.63Z"/><path d="M61.78,84.66h-.46a2.7,2.7,0,0,0-2.68,2.71V99.76a.6.6,0,0,0,.6.6h4.61a.6.6,0,0,0,.61-.6V87.37A2.7,2.7,0,0,0,61.78,84.66Zm-1.93,5.11h3.4V91h-3.4Zm1.47-3.88h.46a1.47,1.47,0,0,1,1.47,1.48v1.18h-3.4V87.37A1.47,1.47,0,0,1,61.32,85.89ZM59.85,99.15V92.24h3.4v6.91Z"/><path d="M72.22,84.66h-.45a2.71,2.71,0,0,0-2.69,2.71V99.76a.6.6,0,0,0,.61.6h4.62a.6.6,0,0,0,.6-.6V87.37A2.7,2.7,0,0,0,72.22,84.66ZM70.3,89.77h3.4V91H70.3Zm1.47-3.88h.45a1.48,1.48,0,0,1,1.48,1.48v1.18H70.3V87.37A1.47,1.47,0,0,1,71.77,85.89ZM70.3,99.15V92.24h3.4v6.91Z"/><g class="cls-2"><path d="M123.67,68.23,95.77,48.32V46.06l.41.53a.6.6,0,0,0,.48.24h2.88a.6.6,0,0,0,.54-.34.62.62,0,0,0-.06-.64L88.93,31.28a.64.64,0,0,0-1,0L76.87,45.85a.62.62,0,0,0-.06.64.6.6,0,0,0,.54.34h3a.6.6,0,0,0,.48-.24l.32-.43v2.16L53.23,68.23a.64.64,0,0,0-.26.5v3.7a.6.6,0,0,0,.33.54.55.55,0,0,0,.28.07.66.66,0,0,0,.35-.11l.54-.39V106a.6.6,0,0,0,.6.61h24v.74a.6.6,0,0,0,.6.6H97.19a.59.59,0,0,0,.42-.17.6.6,0,0,0,.18-.43v-.74h24a.61.61,0,0,0,.61-.61V72.54l.53.39a.66.66,0,0,0,.36.11.52.52,0,0,0,.27-.07.6.6,0,0,0,.33-.54v-3.7A.63.63,0,0,0,123.67,68.23ZM88.94,52.64a.62.62,0,0,0-1,0l-10.66,15H75.94L88.45,50,101,67.68H99.6ZM96,64.7H80.89L88.45,54ZM80,45.61H78.58l9.87-13,9.86,13H97l-8-10.54a.61.61,0,0,0-.48-.24.63.63,0,0,0-.49.24Zm8.43-9.17,6.11,8V56.55l-5.62-7.93a.64.64,0,0,0-1,0l-5.62,7.93v-12ZM54.18,69.05,81.12,49.82V52L55.06,70.62a.62.62,0,0,0-.55.4l-.33.23Zm1.5,36.37V71.68L81.12,53.52v4.74l-6.85,9.68a.6.6,0,0,0,0,.63.59.59,0,0,0,.54.33H77.6a.58.58,0,0,0,.49-.25l1-1.43v38.2Zm24.64,1.34V65.92H96.57V106s0,0,0,0,0,0,0,0v.7Zm40.89-1.34H97.79V67.22l1,1.43a.61.61,0,0,0,.49.25h2.85a.58.58,0,0,0,.53-.33.6.6,0,0,0,0-.63l-6.86-9.68V53.52l25.44,18.16Zm1.5-34.17-.32-.23a.62.62,0,0,0-.55-.4L95.77,52v-2.2l26.94,19.23Z"/></g><path d="M113,100.36h4.61a.6.6,0,0,0,.61-.6V87.37a2.71,2.71,0,0,0-2.69-2.71h-.45a2.71,2.71,0,0,0-2.69,2.71V99.76A.6.6,0,0,0,113,100.36Zm4-9.34h-3.41V89.77h3.41Zm-3.41,8.13V92.24h3.41v6.91Zm1.48-13.26h.45a1.48,1.48,0,0,1,1.48,1.48v1.18h-3.41V87.37A1.48,1.48,0,0,1,115.12,85.89Z"/><path d="M102,99.76a.6.6,0,0,0,.61.6h4.61a.6.6,0,0,0,.61-.6V87.37a2.71,2.71,0,0,0-2.69-2.71h-.45A2.71,2.71,0,0,0,102,87.37ZM106.6,91h-3.41V89.77h3.41Zm-3.41,8.13V92.24h3.41v6.91Zm1.48-13.26h.46a1.47,1.47,0,0,1,1.47,1.48v1.18h-3.41V87.37A1.48,1.48,0,0,1,104.67,85.89Z"/></svg>