<?xml version="1.0" encoding="utf-8"?>
<!-- Generator: Adobe Illustrator 25.2.3, SVG Export Plug-In . SVG Version: 6.00 Build 0)  -->
<svg version="1.1" id="Capa_1" xmlns="http://www.w3.org/2000/svg" xmlns:xlink="http://www.w3.org/1999/xlink" x="0px" y="0px"
	 viewBox="0 0 66.4 75.6" style="enable-background:new 0 0 66.4 75.6;" xml:space="preserve">
<style type="text/css">
	.st0{clip-path:url(#SVGID_2_);}
	.st1{fill:#211915;}
	.st2{clip-path:url(#SVGID_4_);}
	.st3{fill-rule:evenodd;clip-rule:evenodd;fill:#1E3149;}
	.st4{clip-path:url(#SVGID_6_);}
	.st5{clip-path:url(#SVGID_8_);}
	.st6{fill:none;stroke:#231F1F;stroke-width:0.5326;stroke-linecap:round;stroke-linejoin:round;stroke-miterlimit:10;}
	.st7{clip-path:url(#SVGID_10_);}
	.st8{clip-path:url(#SVGID_12_);}
	.st9{clip-path:url(#SVGID_14_);}
	.st10{clip-path:url(#SVGID_16_);}
	.st11{clip-path:url(#SVGID_18_);}
	.st12{clip-path:url(#SVGID_20_);}
	.st13{clip-path:url(#SVGID_22_);}
	.st14{clip-path:url(#SVGID_24_);}
	.st15{clip-path:url(#SVGID_26_);}
	.st16{clip-path:url(#SVGID_28_);}
	.st17{clip-path:url(#SVGID_30_);}
	.st18{clip-path:url(#SVGID_32_);}
</style>
<g>
	<g>
		<defs>
			<rect id="SVGID_1_" x="20.8" y="23.9" width="16" height="24"/>
		</defs>
		<clipPath id="SVGID_2_">
			<use xlink:href="#SVGID_1_"  style="overflow:visible;"/>
		</clipPath>
		<g class="st0">
			<path class="st1" d="M36.8,30.5c-0.1-0.2-0.4-0.2-0.5-0.3c-0.3-0.1-0.7-0.2-1.1-0.2c-1.1-0.2-2.2-0.3-3.4-0.3
				c-1.4-0.1-2.9-0.1-4.3-0.1c-0.3,0-0.7,0-1,0c-0.2-0.6-0.8-1.2-1.5-1.2c-0.1,0-0.3,0-0.4,0c-0.2-0.5-0.4-0.9-0.6-1.4
				c-0.3-0.8-0.7-1.6-1-2.4c-0.1-0.2-0.1-0.4-0.2-0.6c0-0.1-0.2-0.1-0.3-0.1c-0.3,0.2-0.5,0.5-0.8,0.7c0,0,0,0,0,0
				c0.2,0.5,0.5,0.9,0.7,1.4c0.4,0.7,0.7,1.5,1.1,2.2c0.1,0.2,0.2,0.3,0.3,0.5c0,0,0,0,0,0c-0.2,0.2-0.3,0.4-0.4,0.6
				c0,0.1-0.1,0.3-0.1,0.4c-0.5,0.1-1.1,0.2-1.6,0.3c-0.2,0.1-0.4,0.1-0.6,0.2c-0.1,0.1-0.3,0.2-0.3,0.3c0,0.1,0,0.2,0.1,0.2
				c0,0,0,0,0,0c0.1,0.1,0.1,0.1,0.2,0.2c0.2,0.2,0.4,0.4,0.6,0.6c0.3,0.3,0.6,0.6,0.8,0.9c0.3,0.4,0.7,0.7,1,1.1
				c0.4,0.4,0.7,0.8,1.1,1.2c0.4,0.4,0.8,0.8,1.1,1.2c0.3,0.4,0.7,0.8,1.1,1.1c0.3,0.3,0.6,0.6,0.9,1c0.2,0.2,0.3,0.3,0.5,0.5
				c0,0.2,0,0.5,0,0.7c0,0.7,0,1.3,0,2c0,0.8,0,1.6,0,2.4c0,0.7,0,1.4,0,2.1c0,0.1,0,0.2,0,0.2c-0.2,0-0.5,0-0.7,0
				c-0.5,0-1,0.1-1.5,0.2c-0.2,0-0.4,0.1-0.6,0.2c-0.1,0-0.1,0.1-0.2,0.2c0,0.1-0.1,0.2-0.1,0.3c0,0.1,0,0.2,0.1,0.3
				c0.1,0.1,0.2,0.1,0.3,0.2c0.1,0,0.3,0.1,0.4,0.1c0.1,0,0.2,0,0.4,0.1c0.5,0.1,1,0.1,1.6,0.1c0.7,0,1.3,0.1,2,0.1
				c0.3,0,0.6,0,0.9,0c0.3,0,0.6-0.1,0.9-0.2c0.2-0.1,0.4-0.2,0.4-0.5c0-0.2-0.1-0.4-0.3-0.5c-0.1-0.1-0.3-0.2-0.5-0.2
				c-0.2-0.1-0.5-0.1-0.8-0.1c-0.4,0-0.8-0.1-1.3-0.1c0,0,0,0-0.1,0h0c0,0,0,0,0,0c0-0.7,0-1.3,0-2c0-0.8,0-1.6,0-2.4
				c0-0.7,0-1.4,0-2.1c0-0.3,0-0.7,0-1c0,0,0,0,0,0c0,0,0,0,0-0.1c0.1-0.1,0.2-0.2,0.3-0.3c0.3-0.3,0.6-0.6,0.8-0.9
				c0.3-0.4,0.7-0.7,1-1.1c0.4-0.4,0.8-0.8,1.1-1.2c0.4-0.4,0.8-0.8,1.1-1.2c0.4-0.4,0.7-0.8,1.1-1.2c0.3-0.3,0.6-0.7,0.9-1
				c0.2-0.2,0.4-0.5,0.6-0.7c0.1-0.1,0.2-0.2,0.3-0.3c0,0,0,0,0,0c0,0,0-0.1,0-0.1C36.8,30.6,36.8,30.6,36.8,30.5z M30.5,29.8
				c1.2,0,2.4,0.1,3.6,0.2c0.4,0.1,0.9,0.1,1.3,0.2c0.3,0.1,0.6,0.1,0.9,0.2c0.1,0,0.2,0.1,0.3,0.2c0,0-0.1,0.1-0.1,0.1
				c-0.1,0.1-0.1,0.1-0.2,0.2c-0.1,0-0.1,0-0.2,0c-0.2,0-0.3,0.1-0.5,0.1c-0.4,0.1-0.9,0.2-1.3,0.2c-1.2,0.1-2.4,0.2-3.7,0.2
				c-1.4,0-2.8,0-4.3,0c0,0,0,0,0,0c0.3-0.4,0.5-1,0.4-1.5c0-0.1,0-0.2-0.1-0.3C27.9,29.7,29.2,29.7,30.5,29.8z M23.4,27.5
				c-0.4-0.7-0.7-1.5-1.1-2.2c-0.1-0.2-0.2-0.3-0.2-0.5c0.2-0.2,0.4-0.4,0.6-0.6c0.2,0.4,0.3,0.9,0.5,1.3c0.3,0.8,0.7,1.6,1,2.4
				c0.1,0.2,0.1,0.3,0.2,0.5c-0.1,0-0.3,0.1-0.4,0.2C23.8,28.2,23.6,27.8,23.4,27.5z M23.7,29.8c0.1-0.6,0.5-1.2,1.1-1.2
				c0.7-0.1,1.3,0.6,1.5,1.2c0,0,0,0,0,0c0.2,0.6,0.1,1.3-0.3,1.8c-0.6,0-1.2-0.1-1.8-0.1C23.7,31,23.6,30.3,23.7,29.8z M29,38.2
				C29,38.2,28.9,38.2,29,38.2c-0.2,0-0.3-0.2-0.5-0.3c-0.4-0.4-0.8-0.9-1.2-1.3c-0.5-0.5-0.9-1-1.4-1.6c-0.4-0.5-0.8-0.9-1.2-1.4
				c-0.1-0.1-0.2-0.2-0.3-0.4c0,0,0.1,0,0.1,0c0.5,0.1,1,0.2,1.5,0.2c0.3,0.7,0.7,1.3,1,2c0.1,0.2,0.2,0.3,0.2,0.5
				c0,0.1,0.3,0,0.3,0c-0.2-0.5-0.4-0.9-0.6-1.4c-0.1-0.3-0.3-0.7-0.4-1c0.9,0.1,1.9,0.1,2.8,0.1c0.9,0,1.8,0,2.6-0.1
				c0.3,0,0.6-0.1,0.9-0.1c0.1,0,0.1,0,0.2,0c-0.1,0.1-0.1,0.1-0.2,0.2c-0.4,0.4-0.8,0.9-1.1,1.3c-0.5,0.5-0.9,1.1-1.4,1.6
				c-0.4,0.5-0.8,0.9-1.2,1.4C29.3,37.9,29.1,38,29,38.2z M25.7,32c0.1,0.3,0.2,0.5,0.3,0.8c-0.1-0.1-0.1-0.2-0.2-0.3
				C25.8,32.3,25.7,32.1,25.7,32C25.7,32,25.7,32,25.7,32z M26,33.2c-0.3,0-0.6-0.1-0.9-0.1c-0.2,0-0.5-0.1-0.7-0.1
				c-0.1,0-0.1,0-0.2,0c0,0,0,0,0,0c0,0-0.1,0-0.1,0c0,0,0,0,0,0c0,0,0.1-0.1,0.1-0.1c0.3-0.1,0.6-0.2,0.9-0.2
				c0.2,0,0.4-0.1,0.6-0.1C25.7,32.7,25.8,33,26,33.2z M33.7,32.8c-0.1,0.1-0.3,0.1-0.4,0.2c-0.2,0.1-0.5,0.1-0.8,0.1
				c-0.8,0.1-1.5,0.2-2.3,0.2c-0.9,0-1.9,0-2.8,0c-0.3,0-0.5,0-0.8,0c-0.1-0.3-0.2-0.6-0.3-0.8c0.8-0.1,1.7-0.1,2.5-0.1
				c0.9,0,1.8,0,2.7,0.1c0.6,0,1.2,0.1,1.8,0.2C33.4,32.7,33.5,32.7,33.7,32.8C33.6,32.8,33.6,32.8,33.7,32.8L33.7,32.8
				C33.7,32.8,33.7,32.8,33.7,32.8z M25.1,31.9c-0.3,0-0.5-0.1-0.8-0.3c0,0,0,0,0,0c0.2,0,0.4,0,0.5,0c0.3,0,0.6,0,0.9,0.1
				C25.6,31.8,25.3,31.9,25.1,31.9z M21.1,30.5C21.2,30.5,21.2,30.5,21.1,30.5C21.2,30.5,21.2,30.5,21.1,30.5
				C21.2,30.5,21.2,30.5,21.1,30.5C21.2,30.5,21.2,30.5,21.1,30.5C21.2,30.5,21.2,30.5,21.1,30.5C21.2,30.5,21.2,30.5,21.1,30.5
				c0.1-0.1,0.1-0.1,0.2-0.1c0.1,0,0.2-0.1,0.3-0.1c0.2-0.1,0.5-0.1,0.8-0.2c0.3-0.1,0.7-0.1,1-0.1c0,0.5,0.1,1,0.4,1.3
				c-0.3,0-0.6-0.1-0.8-0.1c-0.4-0.1-0.7-0.1-1.1-0.2c-0.2-0.1-0.4-0.1-0.6-0.3C21.2,30.7,21.1,30.7,21.1,30.5
				C21.1,30.6,21.1,30.6,21.1,30.5z M29.1,41.5c0,0.8,0,1.6,0,2.4c0,0.7,0,1.4,0,2c0,0.3,0,0.7,0,1c-0.1,0-0.3,0-0.4,0
				c0-0.2,0-0.4,0-0.7c0-0.7,0-1.3,0-2c0-0.8,0-1.6,0-2.4c0-0.7,0-1.4,0-2.1c0-0.2,0-0.5,0-0.7c0,0,0-0.1,0-0.1
				c0.1,0.1,0.1,0.2,0.2,0.2c0,0,0,0,0,0c0,0,0.1,0.1,0.2,0c0,0,0,0,0,0c0.1-0.1,0.1-0.1,0.2-0.2c0,0.2,0,0.3,0,0.5
				C29.2,40.2,29.1,40.9,29.1,41.5z M30.2,46.5c0.5,0,0.9,0.1,1.4,0.2c0,0,0,0,0,0c0,0,0,0,0,0c0,0,0,0,0.1,0c0,0,0,0,0,0
				c0,0,0,0,0,0c0,0,0,0,0,0c0.1,0.1,0.1,0.1,0.1,0.2c0.1,0.1,0.1,0.1,0.1,0.2c0,0,0,0,0,0c0,0,0,0,0,0c0,0,0,0,0,0c0,0,0,0,0,0
				c0,0,0,0,0,0c0,0,0,0,0,0l0,0l0,0c-0.1,0.1-0.1,0.1-0.2,0.1c-0.2,0.1-0.3,0.1-0.5,0.1c-0.1,0-0.2,0-0.3,0c-0.1,0-0.3,0-0.4,0
				c-0.6,0-1.2,0-1.8,0c-0.6,0-1.1-0.1-1.7-0.1c0,0-0.1,0-0.1,0c0,0,0,0,0,0c0,0,0,0,0,0c0,0-0.1,0-0.1,0c-0.1,0-0.2,0-0.3-0.1
				c-0.1,0-0.3-0.1-0.4-0.1c0,0,0,0,0,0c0,0,0,0,0,0c0,0,0,0,0,0c0,0,0,0-0.1,0c0,0,0,0,0,0c0,0,0,0,0,0s0,0,0,0c0,0-0.1,0,0,0
				c-0.1-0.1-0.1-0.1-0.1-0.2c0-0.1,0-0.1,0-0.2c0,0,0,0,0,0c0,0,0,0,0,0c0,0,0,0,0,0c0,0,0,0,0,0c0,0,0,0,0,0c0,0,0,0,0,0
				c0,0,0.1,0,0.1,0c0,0,0,0,0,0c0,0,0,0,0.1,0c0,0,0.1,0,0.1,0c0,0,0,0,0,0c0,0,0,0,0,0c0,0,0,0,0,0c0,0,0,0,0.1,0
				c0.1,0,0.1,0,0.2,0c0.1,0,0.2,0,0.3-0.1c0.1,0,0.2,0,0.4,0c0.1,0,0.1,0,0.2,0c0,0,0.1,0,0.1,0c0,0,0,0,0,0c0,0,0,0,0,0
				c0,0,0,0,0,0c0.3,0,0.7,0,1,0c0,0,0,0,0,0c0,0.2,0,0.4,0,0.6c0,0,0,0,0,0c0,0.1,0.1,0.2,0.2,0.2c0.2,0,0.4,0,0.7,0c0,0,0,0,0,0
				c0,0,0,0,0,0c0,0,0,0,0,0c0,0,0,0,0,0c0-0.2,0-0.4,0-0.6C29.6,46.5,29.9,46.5,30.2,46.5z M35,32.3c-0.3,0.4-0.7,0.8-1,1.1
				c-0.4,0.4-0.8,0.8-1.1,1.2c-0.4,0.4-0.8,0.8-1.1,1.2c-0.4,0.4-0.7,0.8-1.1,1.2c-0.3,0.3-0.6,0.6-0.9,1c-0.2,0.2-0.4,0.5-0.6,0.7
				c-0.1,0.1-0.2,0.2-0.3,0.3c0,0-0.1-0.1-0.1-0.1c-0.2-0.2-0.4-0.4-0.6-0.6c-0.3-0.3-0.6-0.6-0.8-0.9c-0.3-0.4-0.7-0.7-1-1.1
				c-0.4-0.4-0.8-0.8-1.1-1.2c-0.4-0.4-0.8-0.8-1.1-1.2c-0.4-0.4-0.7-0.8-1.1-1.1c-0.3-0.3-0.6-0.6-0.9-1c-0.2-0.2-0.4-0.4-0.6-0.7
				c0.1,0,0.3,0.1,0.4,0.1c0.7,0.2,1.4,0.2,2.1,0.3c0,0,0,0,0,0c0.4,0.4,0.9,0.6,1.4,0.5c0,0.1,0.1,0.1,0.1,0.2
				c-0.4,0-0.8,0.1-1.1,0.2c-0.1,0-0.2,0.1-0.4,0.1c-0.1,0-0.1,0.1-0.2,0.1c0,0.1,0,0.2,0.1,0.3c0,0,0,0.1,0,0.1
				c0.2,0.2,0.3,0.4,0.5,0.5c0.4,0.4,0.8,0.9,1.2,1.3c0.5,0.5,0.9,1.1,1.4,1.6c0.4,0.5,0.8,0.9,1.2,1.4c0.1,0.2,0.3,0.3,0.4,0.4
				c0.1,0.1,0.1,0.1,0.2,0.2c0,0,0,0,0,0c0.1,0.1,0.2,0.1,0.2,0c0.2-0.2,0.3-0.4,0.5-0.5c0.4-0.4,0.8-0.9,1.1-1.3
				c0.5-0.5,0.9-1.1,1.4-1.6c0.4-0.5,0.8-0.9,1.2-1.4c0.2-0.2,0.3-0.4,0.5-0.6c0.1,0,0.2-0.1,0.2-0.2c0-0.2-0.2-0.3-0.3-0.4
				c-0.2-0.1-0.4-0.1-0.6-0.2c-0.3-0.1-0.6-0.1-0.9-0.1c-0.9-0.1-1.7-0.1-2.6-0.2c-1,0-1.9,0-2.9,0.1c-0.2,0-0.3,0-0.5,0
				c0-0.1-0.1-0.2-0.1-0.3c0.1,0,0.1-0.1,0.2-0.1c1,0,2,0.1,3,0.1c1.4,0,2.7-0.1,4.1-0.2c0.5,0,1-0.1,1.6-0.2
				c0.4-0.1,0.8-0.1,1.1-0.2c0.1,0,0.1,0,0.2-0.1c-0.1,0.1-0.2,0.2-0.3,0.3C35.6,31.7,35.3,32,35,32.3z"/>
		</g>
	</g>
	<g>
		<defs>
			<rect id="SVGID_3_" x="20.8" y="30.1" width="0.6" height="1.3"/>
		</defs>
		<clipPath id="SVGID_4_">
			<use xlink:href="#SVGID_3_"  style="overflow:visible;"/>
		</clipPath>
		<g class="st2">
			<path class="st1" d="M21.2,30.5C21.2,30.5,21.2,30.5,21.2,30.5C21.2,30.5,21.2,30.5,21.2,30.5z"/>
		</g>
	</g>
	<path class="st1" d="M25.6,29.9c0.2-0.1,0.3-0.4,0.2-0.6c-0.1-0.2-0.3-0.4-0.5-0.4c-0.2,0-0.4,0.1-0.5,0.3c-0.1,0.2,0,0.4,0.1,0.6
		C25.2,29.9,25.4,30,25.6,29.9z M25.3,29.7C25.3,29.7,25.3,29.7,25.3,29.7C25.3,29.8,25.3,29.7,25.3,29.7z M25.4,29.7
		C25.4,29.8,25.4,29.7,25.4,29.7z M25.1,29.3c0-0.1,0-0.1,0.1-0.2c0,0,0,0,0.1-0.1c0,0,0,0,0,0c0,0,0,0,0,0c0,0,0,0,0,0c0,0,0,0,0,0
		s0,0,0,0s0,0,0,0c0,0,0,0,0,0s0,0,0,0s0,0,0,0c0,0,0,0,0,0c0,0,0,0,0,0c0,0,0,0,0,0c0.1,0,0.1,0.1,0.1,0.2c0,0.1,0,0.3-0.1,0.4
		c0,0,0,0-0.1,0c0,0,0,0,0,0c0,0,0,0,0,0h0c0,0,0,0,0,0s0,0,0,0c0,0,0,0,0,0c0,0,0,0,0,0c0,0,0,0,0,0c0,0,0,0,0,0c0,0,0,0,0,0
		c0,0,0,0,0,0c0,0,0,0,0,0c-0.1,0-0.1-0.1-0.1-0.2C25.1,29.5,25.1,29.4,25.1,29.3z"/>
	<path class="st1" d="M30,35.6c0.2,0.1,0.5,0.1,0.7-0.1c0.1-0.2,0.2-0.4,0-0.6c-0.1-0.2-0.4-0.3-0.7-0.3c-0.2,0-0.5,0.2-0.5,0.5
		C29.7,35.4,29.8,35.6,30,35.6z M30.3,34.7C30.3,34.7,30.3,34.7,30.3,34.7z M30.2,34.8C30.2,34.8,30.2,34.7,30.2,34.8
		C30.3,34.7,30.3,34.7,30.2,34.8C30.3,34.7,30.3,34.7,30.2,34.8C30.3,34.7,30.3,34.7,30.2,34.8C30.3,34.7,30.3,34.7,30.2,34.8
		C30.3,34.7,30.3,34.7,30.2,34.8c0.1,0,0.1,0,0.1,0c0.1,0,0.1,0.1,0.2,0.1c0.1,0.1,0.1,0.3,0,0.5c0,0.1-0.1,0.1-0.2,0.2
		c0,0-0.1,0-0.1,0c0,0,0,0,0,0s0,0,0,0c0,0,0,0,0,0h0c0,0-0.1,0-0.1,0c0,0-0.1-0.1-0.1-0.1C30,35.4,30,35.3,30,35.2
		C30,35,30,34.8,30.2,34.8z"/>
	<path class="st1" d="M31.2,34.4c0.2,0.1,0.3,0,0.5-0.1c0.1-0.1,0.1-0.2,0-0.3c-0.1-0.1-0.3-0.2-0.4-0.2c-0.1,0-0.3,0.1-0.3,0.3
		C31,34.2,31.1,34.3,31.2,34.4z M31.3,34.3C31.3,34.3,31.3,34.3,31.3,34.3z M31.3,34.3C31.4,34.3,31.4,34.3,31.3,34.3z M31.4,34
		C31.4,34,31.4,34,31.4,34z M31.4,33.9C31.3,33.9,31.3,33.9,31.4,33.9z M31.3,34.1C31.3,34,31.3,34,31.3,34.1
		C31.3,34,31.3,34,31.3,34.1C31.3,34,31.3,34,31.3,34.1C31.3,34,31.3,34,31.3,34.1C31.3,34,31.4,34,31.3,34.1
		C31.4,34,31.4,34,31.3,34.1c0.1-0.1,0.1-0.1,0.1-0.1c0,0,0,0,0,0c0,0,0,0,0,0.1c0,0,0,0.1,0,0.1c0,0,0,0,0,0.1c0,0,0,0,0,0
		c0,0,0,0,0,0c0,0,0,0,0,0c0,0,0,0,0,0c0,0,0,0,0,0c0,0,0,0,0,0c0,0,0,0,0-0.1C31.3,34.2,31.3,34.1,31.3,34.1
		C31.3,34.1,31.3,34.1,31.3,34.1z"/>
</g>
</svg>
