<?xml version="1.0" encoding="utf-8"?>
<!-- Generator: Adobe Illustrator 25.2.3, SVG Export Plug-In . SVG Version: 6.00 Build 0)  -->
<svg version="1.1" id="Capa_1" xmlns="http://www.w3.org/2000/svg" xmlns:xlink="http://www.w3.org/1999/xlink" x="0px" y="0px"
	 viewBox="0 0 59.7 36" style="enable-background:new 0 0 59.7 36;" xml:space="preserve">
<style type="text/css">
	.st0{clip-path:url(#SVGID_2_);}
	.st1{fill:#211915;}
	.st2{clip-path:url(#SVGID_4_);}
	.st3{fill-rule:evenodd;clip-rule:evenodd;fill:#1E3149;}
	.st4{clip-path:url(#SVGID_6_);}
	.st5{clip-path:url(#SVGID_8_);}
	.st6{fill:none;stroke:#231F1F;stroke-width:0.5326;stroke-linecap:round;stroke-linejoin:round;stroke-miterlimit:10;}
	.st7{clip-path:url(#SVGID_10_);}
	.st8{clip-path:url(#SVGID_12_);}
	.st9{clip-path:url(#SVGID_14_);}
	.st10{clip-path:url(#SVGID_16_);}
	.st11{clip-path:url(#SVGID_18_);}
	.st12{clip-path:url(#SVGID_20_);}
	.st13{clip-path:url(#SVGID_22_);}
	.st14{clip-path:url(#SVGID_24_);}
	.st15{clip-path:url(#SVGID_26_);}
	.st16{clip-path:url(#SVGID_28_);}
	.st17{clip-path:url(#SVGID_30_);}
	.st18{clip-path:url(#SVGID_32_);}
</style>
<g>
	<defs>
		<rect id="SVGID_7_" x="28.3" y="14.9" width="4" height="13.6"/>
	</defs>
	<clipPath id="SVGID_2_">
		<use xlink:href="#SVGID_7_"  style="overflow:visible;"/>
	</clipPath>
	<g class="st0">
		<path class="st6" d="M31.6,28.2h-2.8V16h2.8V28.2z"/>
	</g>
</g>
<path class="st6" d="M31.6,12v-0.6c0-0.9-0.7-1.6-1.6-1.6h0.1c-0.9,0-1.6,0.7-1.6,1.6V12H31.6z"/>
<g>
	<defs>
		<rect id="SVGID_9_" x="29.7" y="6.5" width="9.3" height="7.1"/>
	</defs>
	<clipPath id="SVGID_4_">
		<use xlink:href="#SVGID_9_"  style="overflow:visible;"/>
	</clipPath>
	<g class="st2">
		<path class="st6" d="M38.5,10.4c0-1.2-0.8-1.2-0.8-1.2c0.7-1.4-0.7-3.3-3.6-1.5c-1.9,1.2-2.9,2.2-3.2,2.4c0.4,0.3,0.7,0.8,0.7,1.3
			V12h5C37.5,12,38.5,11.5,38.5,10.4z"/>
	</g>
</g>
<path class="st6" d="M37.7,9.2c0,0-0.6,1-2.8,1.2"/>
<g>
	<defs>
		<rect id="SVGID_11_" x="29.7" y="6.5" width="6.7" height="4.4"/>
	</defs>
	<clipPath id="SVGID_6_">
		<use xlink:href="#SVGID_11_"  style="overflow:visible;"/>
	</clipPath>
	<g class="st4">
		<path class="st6" d="M30.9,10.1c0,0,1.1,0.2,3-0.8c1.6-0.8,1.9-1.8,1.5-2.3"/>
	</g>
</g>
<g>
	<defs>
		<rect id="SVGID_13_" x="20.3" y="6.5" width="9.3" height="7.1"/>
	</defs>
	<clipPath id="SVGID_8_">
		<use xlink:href="#SVGID_13_"  style="overflow:visible;"/>
	</clipPath>
	<g class="st5">
		<path class="st6" d="M21.7,10.4c0-1.2,0.8-1.2,0.8-1.2c-0.7-1.4,0.7-3.3,3.6-1.5c1.9,1.2,2.9,2.2,3.2,2.4
			c-0.4,0.3-0.7,0.8-0.7,1.3V12h-5C22.8,12,21.7,11.5,21.7,10.4z"/>
	</g>
</g>
<path class="st6" d="M22.6,9.2c0,0,0.6,1,2.8,1.2"/>
<g>
	<defs>
		<rect id="SVGID_15_" x="24.3" y="6.5" width="5.3" height="4.4"/>
	</defs>
	<clipPath id="SVGID_10_">
		<use xlink:href="#SVGID_15_"  style="overflow:visible;"/>
	</clipPath>
	<g class="st7">
		<path class="st6" d="M29.3,10.1c0,0-1.1,0.2-3-0.8c-1.6-0.8-1.9-1.8-1.6-2.3"/>
	</g>
</g>
<path class="st6" d="M31.7,11.9c0.5,1.1,1.8,1.8,2.6,2.7c0.9,1,1.7,2.1,1.9,3.4c0.4,2.4-0.1,4.6,1.4,6.6c-0.5-0.2-1-0.5-1.5-0.7
	c0,0.6-0.1,1.2,0.2,1.6c-2.7-1.8-1.7-5.1-2.4-7.6c-0.4-1.4-1.2-2.3-2.5-3.2c-1.6-1.1-2.6-2.8-2.6-2.8L31.7,11.9z"/>
<path class="st6" d="M28.7,12l1.4,0l-1.5,0c-0.5,1.1-1.8,1.8-2.6,2.7c-0.9,1-1.6,2.1-1.9,3.4c-0.4,2.4,0.1,4.6-1.4,6.6
	c0.5-0.2,1-0.5,1.5-0.7c0,0.6,0.1,1.2-0.2,1.6c2.7-1.8,1.7-5.1,2.4-7.6c0.4-1.4,1.2-2.3,2.5-3.2c0.5-0.3,0.9-0.6,1.2-1
	C29.2,12.9,28.7,12,28.7,12z"/>
<path class="st6" d="M27.5,16h5.3c-0.4-0.4-0.9-0.8-1.4-1.2c-0.5-0.3-0.9-0.6-1.2-1c-0.3,0.3-0.8,0.7-1.2,1
	C28.4,15.2,27.9,15.6,27.5,16z"/>
<g>
	<defs>
		<rect id="SVGID_17_" x="31" y="10.9" width="10.6" height="6.7"/>
	</defs>
	<clipPath id="SVGID_12_">
		<use xlink:href="#SVGID_17_"  style="overflow:visible;"/>
	</clipPath>
	<g class="st8">
		<path class="st6" d="M40.3,12h-8.6c0.5,1.1,1.8,1.8,2.6,2.6c0.4,0.4,0.8,0.9,1.1,1.4h6v-2.9C41.4,12.5,40.9,12,40.3,12z"/>
	</g>
</g>
<g>
	<defs>
		<rect id="SVGID_19_" x="18.6" y="10.9" width="11.1" height="6.7"/>
	</defs>
	<clipPath id="SVGID_14_">
		<use xlink:href="#SVGID_19_"  style="overflow:visible;"/>
	</clipPath>
	<g class="st9">
		<path class="st6" d="M26,14.6c0.8-0.8,2.1-1.5,2.6-2.6H20c-0.6,0-1.1,0.5-1.1,1.1V16H25C25.3,15.5,25.6,15,26,14.6z"/>
	</g>
</g>
<g>
	<defs>
		<rect id="SVGID_21_" x="19" y="14.9" width="21.3" height="13.6"/>
	</defs>
	<clipPath id="SVGID_16_">
		<use xlink:href="#SVGID_21_"  style="overflow:visible;"/>
	</clipPath>
	<g class="st10">
		<path class="st6" d="M35.3,16c0.4,0.6,0.7,1.3,0.8,2c0.4,2.4-0.1,4.6,1.4,6.6c-0.5-0.2-1-0.5-1.5-0.7c0,0.6-0.1,1.2,0.2,1.6
			c-2.7-1.8-1.7-5.1-2.4-7.6c-0.2-0.8-0.6-1.4-1.1-1.9h-5.3c-0.5,0.5-0.8,1.2-1.1,1.9c-0.7,2.5,0.3,5.8-2.4,7.6
			c0.3-0.5,0.2-1.1,0.2-1.6c-0.5,0.2-1,0.5-1.5,0.7c1.6-1.9,1-4.2,1.4-6.6c0.1-0.7,0.4-1.4,0.8-2h-4.4v12.2h19.1V16H35.3z"/>
	</g>
</g>
</svg>
