<?xml version="1.0" encoding="utf-8"?>
<!-- Generator: Adobe Illustrator 25.2.3, SVG Export Plug-In . SVG Version: 6.00 Build 0)  -->
<svg version="1.1" id="Capa_1" xmlns="http://www.w3.org/2000/svg" xmlns:xlink="http://www.w3.org/1999/xlink" x="0px" y="0px"
	 viewBox="0 0 54.1 43.7" style="enable-background:new 0 0 54.1 43.7;" xml:space="preserve">
<style type="text/css">
	.st0{clip-path:url(#SVGID_2_);}
	.st1{fill:#211915;}
	.st2{clip-path:url(#SVGID_4_);}
	.st3{fill-rule:evenodd;clip-rule:evenodd;fill:#1E3149;}
	.st4{clip-path:url(#SVGID_6_);}
	.st5{clip-path:url(#SVGID_8_);}
	.st6{fill:none;stroke:#231F1F;stroke-width:0.5326;stroke-linecap:round;stroke-linejoin:round;stroke-miterlimit:10;}
	.st7{clip-path:url(#SVGID_10_);}
	.st8{clip-path:url(#SVGID_12_);}
	.st9{clip-path:url(#SVGID_14_);}
	.st10{clip-path:url(#SVGID_16_);}
	.st11{clip-path:url(#SVGID_18_);}
	.st12{clip-path:url(#SVGID_20_);}
	.st13{clip-path:url(#SVGID_22_);}
	.st14{clip-path:url(#SVGID_24_);}
	.st15{clip-path:url(#SVGID_26_);}
	.st16{clip-path:url(#SVGID_28_);}
	.st17{clip-path:url(#SVGID_30_);}
	.st18{clip-path:url(#SVGID_32_);}
</style>
<g>
	<defs>
		<rect id="SVGID_5_" x="14.9" y="9.1" width="25" height="23"/>
	</defs>
	<clipPath id="SVGID_2_">
		<use xlink:href="#SVGID_5_"  style="overflow:visible;"/>
	</clipPath>
	<g class="st0">
		<path class="st3" d="M37.9,31.3c0-0.1-0.1-0.3-0.2-0.2C37.8,31.1,37.8,31.3,37.9,31.3z M38.5,31.2c-0.1-0.1,0-0.4-0.1-0.4
			C38.4,31,38.3,31.2,38.5,31.2z M37.1,30.1C37,30.2,37,29.9,36.9,30C37,30.1,37,30.2,37.1,30.1z M35.9,29.1c0.1,0,0.2,0.1,0.2,0
			C36,29.1,36,29,35.9,29C35.9,29,35.9,29.1,35.9,29.1z M35.6,29.3c-0.2,0-0.3-0.2-0.5-0.2C35.2,29.2,35.5,29.3,35.6,29.3z M34.9,29
			c0-0.1-0.1-0.1-0.1-0.1C34.8,29,34.8,29,34.9,29z M34.7,29C34.7,29,34.7,29,34.7,29C34.7,28.9,34.7,28.9,34.7,29
			C34.7,28.9,34.7,28.9,34.7,29C34.7,28.9,34.7,29,34.7,29z M35.7,29c0-0.1-0.1-0.1-0.1-0.2c-0.1,0.1-0.1-0.1-0.2,0
			C35.4,28.9,35.6,29,35.7,29z M35.2,28.8c0.1,0,0.2-0.1,0.1-0.1C35.2,28.7,35.2,28.7,35.2,28.8z M34.3,28.7
			C34.3,28.8,34.3,28.7,34.3,28.7z M35.4,28.5C35.4,28.5,35.4,28.5,35.4,28.5z M34.9,28.7c0-0.1,0.1-0.1,0.1-0.2c-0.1,0-0.1,0-0.2,0
			C34.9,28.6,34.9,28.7,34.9,28.7z M35.2,28.5c0,0,0-0.1,0-0.1c-0.2,0.1-0.2-0.1-0.4-0.1c0,0,0,0.1,0,0.1
			C35.1,28.3,35,28.6,35.2,28.5z M35,28.2c0-0.1-0.1-0.1-0.1-0.1C34.8,28.2,35,28.3,35,28.2z M34.3,28.2c-0.2,0.2,0.2,0.4,0.4,0.4
			c0-0.3-0.2-0.3-0.3-0.4c0.1,0,0.1,0,0.2,0c0-0.2-0.1-0.3-0.2-0.3c0,0.1-0.1,0.1-0.1,0c0,0-0.1,0-0.1,0
			C34.2,28.1,34.2,28.1,34.3,28.2z M34.5,27.8c-0.1,0-0.1-0.1-0.2-0.1C34.2,27.8,34.4,27.9,34.5,27.8z M31,27.4
			C31,27.5,30.9,27.4,31,27.4z M34.7,26.8C34.6,26.8,34.6,26.8,34.7,26.8C34.6,26.8,34.7,26.8,34.7,26.8z M31,27.1
			c0,0.1,0.1,0.1,0.1,0.2c0.5,0.1,1,0.6,1.5,0.6c-0.5-0.3-1.2-0.7-1.8-0.8C30.9,27,31,27.1,31,27.1z M33.6,27.6
			c-0.1,0.1,0.1,0.5-0.1,0.6c0.2,0,0.4,0.1,0.6,0.1c0-0.1-0.1-0.1-0.1-0.2c0.1,0,0.1-0.1,0.1-0.2C33.9,27.8,33.7,27.7,33.6,27.6z
			 M33.6,27.4c0,0,0,0.1,0,0.1c0.2-0.1,0.3,0.2,0.4,0.1c-0.1,0,0.1,0,0-0.1C33.9,27.5,33.8,27.4,33.6,27.4z M32.6,27.2
			c0.2,0,0-0.3,0.1-0.4c-0.1,0-0.1-0.2-0.3-0.2c0,0.1-0.1,0.1-0.2,0.1c0,0.2,0,0.4,0.1,0.6c0.2,0,0.2,0.2,0.4,0.2
			c0-0.1,0-0.2,0.1-0.2c0,0,0.1,0.1,0.1,0.1c-0.1,0-0.1,0.2-0.1,0.2c0.1,0.1,0.3,0.1,0.3,0.3c0.1,0,0.2,0,0.3,0c0-0.2,0-0.3-0.1-0.5
			c-0.1,0-0.2,0-0.2,0c0.1,0,0.1,0.1,0.2,0c0-0.1,0-0.2,0-0.2c0.1,0,0.1-0.1,0.2-0.1c0.1,0.1,0.1,0.2,0.1,0.3c0.2,0,0.3,0.2,0.5,0
			c0,0.3,0.4,0.2,0.4,0.4c0-0.2,0.3,0.1,0.4,0c-0.2-0.1-0.2-0.3-0.3-0.4c-0.7,0.1-1.2-0.3-1.7-0.5c0.1,0.1-0.1,0.1,0,0.2
			c0.2,0.1,0,0.1,0,0.2c0,0,0,0.1,0,0.1c0.1,0,0.3,0.1,0.3,0.2C33,27.3,32.7,27.4,32.6,27.2z M29.7,26.8
			C29.8,26.9,29.8,26.7,29.7,26.8z M29.4,26.7c0,0,0.1,0,0.1,0c0-0.1,0-0.1-0.1-0.1C29.4,26.7,29.4,26.7,29.4,26.7z M29.1,26.5
			C29.1,26.6,29.1,26.5,29.1,26.5z M29.7,26.4c0.3,0.1,0.7,0.5,1.1,0.4C30.5,26.7,29.9,26.4,29.7,26.4z M29.6,26.4
			c0-0.1-0.2-0.2-0.2-0.1C29.4,26.3,29.5,26.4,29.6,26.4z M30.9,26.8c0.4,0.1,0.8,0.4,1.2,0.4c-0.2-0.2,0-0.4-0.1-0.5
			c0.1-0.1,0.1-0.1,0.3-0.1c-0.4-0.3-0.9-0.3-1.4-0.5C30.9,26.4,30.9,26.5,30.9,26.8z M29.2,26.3C29.3,26.3,29.3,26.3,29.2,26.3
			C29.3,26.3,29.3,26.3,29.2,26.3C29.3,26.3,29.2,26.3,29.2,26.3C29.2,26.3,29.2,26.3,29.2,26.3z M33.4,25.4
			C33.5,25.6,33.6,25.5,33.4,25.4z M35.8,25.2c0-0.1-0.2-0.3-0.3-0.2C35.6,25.1,35.6,25.1,35.8,25.2z M30,26.4
			c0.3,0.1,0.4,0.3,0.7,0.3c0-0.3-0.1-0.5,0.1-0.7c-0.3-0.2-0.6-0.3-0.9-0.4C29.9,26,30,26.1,30,26.4z M33.3,25.2
			C33.3,25.2,33.2,25.2,33.3,25.2C33.3,25.2,33.3,25.2,33.3,25.2z M27.5,25.8C27.5,25.9,27.5,25.6,27.5,25.8z M29.9,26.3
			c-0.2-0.1-0.2-0.3-0.2-0.6c-0.1-0.1-0.3-0.2-0.5-0.3c0,0,0,0,0,0C28.9,26,29.5,26.3,29.9,26.3z M35.1,24.6
			C35.2,24.7,35.2,24.5,35.1,24.6z M29.1,26c0-0.3-0.1-0.6,0-0.7c-0.1,0-0.2-0.1-0.4-0.1C28.9,25.5,28.6,25.9,29.1,26z M27.4,25.4
			c0-0.1-0.2-0.1-0.1,0C27.3,25.4,27.3,25.5,27.4,25.4z M33.1,25c-0.1-0.2-0.2-0.4-0.4-0.5C32.7,24.7,32.9,24.9,33.1,25z M32.6,24.5
			C32.6,24.6,32.6,24.4,32.6,24.5z M34.7,24.1C34.8,24.1,34.7,24.1,34.7,24.1z M32.1,24.3C32.1,24.3,32.1,24.3,32.1,24.3z
			 M32.5,24.4c0,0,0.1,0,0.1,0c-0.1-0.1-0.2-0.1-0.2-0.3c0,0-0.1,0-0.1,0.1C32.3,24.2,32.4,24.3,32.5,24.4z M28.8,25.8
			c0-0.1-0.2-0.4,0-0.6c-0.1-0.1-0.3,0-0.3-0.2c-0.2,0-0.6-0.1-0.6-0.3c-0.1,0-0.2,0-0.2,0c-0.1,0.2-0.1,0.4-0.1,0.6
			C28,25.4,28.2,25.7,28.8,25.8z M28.2,25.6c-0.2,0.2-0.5-0.2-0.7-0.2c0.4,0.4,1.1,0.5,1.6,0.8C28.9,25.9,28.4,26,28.2,25.6z
			 M34.2,23.8C34.2,24,34.2,23.7,34.2,23.8z M34.5,23.6C34.6,23.6,34.3,23.5,34.5,23.6z M34.3,23.6C34.3,23.6,34.4,23.6,34.3,23.6
			C34.4,23.5,34.4,23.5,34.3,23.6C34.4,23.5,34.3,23.5,34.3,23.6C34.3,23.5,34.3,23.6,34.3,23.6z M31.8,23.9
			C31.8,24,31.8,23.7,31.8,23.9z M31.9,23.7C31.9,23.7,31.9,23.7,31.9,23.7z M31.5,23.6C31.5,23.6,31.5,23.6,31.5,23.6z M24.1,24.4
			C24.2,24.6,24.1,24.3,24.1,24.4z M24.4,24.3C24.4,24.3,24.4,24.3,24.4,24.3C24.4,24.4,24.4,24.4,24.4,24.3z M24.1,24.4
			C24,24.4,24,24.4,24.1,24.4C24,24.4,24.1,24.4,24.1,24.4z M33.8,23C33.8,23,33.8,23,33.8,23c0,0.1,0.1,0.2-0.1,0.3
			c0.1,0,0.1,0,0.2,0c0-0.1-0.1-0.1-0.1-0.1c0.1,0,0.1-0.1,0.1-0.1c0,0.1,0,0.1,0.1,0.1c0-0.1,0-0.1,0-0.1
			C33.9,23.1,33.9,23,33.8,23C33.8,23,33.8,23,33.8,23z M31.2,23.3C31.2,23.3,31.2,23.2,31.2,23.3z M24,24.1
			C24.2,24.1,23.8,24.1,24,24.1z M25.9,23.8C25.8,23.8,25.8,23.8,25.9,23.8C25.8,23.8,25.9,23.8,25.9,23.8z M23.4,24.1
			c-0.1,0,0-0.1-0.1-0.1C23.3,24.1,23.4,24.2,23.4,24.1z M31,23C31,23,31,23,31,23C31,23,31,23,31,23C31,22.9,31,22.9,31,23
			C31,23,31,23,31,23z M33.2,22.5C33.2,22.5,33.2,22.5,33.2,22.5C33.2,22.5,33.2,22.5,33.2,22.5z M33.4,22.5
			C33.4,22.5,33.5,22.5,33.4,22.5C33.5,22.4,33.5,22.4,33.4,22.5C33.5,22.4,33.4,22.4,33.4,22.5C33.4,22.4,33.4,22.4,33.4,22.5z
			 M33.3,22.5C33.3,22.6,33.3,22.3,33.3,22.5z M33.1,22.4C33.1,22.4,33,22.4,33.1,22.4C33.1,22.4,33.1,22.4,33.1,22.4z M23.1,23.7
			c0-0.1-0.2-0.1-0.2-0.1C22.9,23.7,23.4,23.8,23.1,23.7z M33,22.3C33,22.3,33,22.3,33,22.3z M33.4,22.3c-0.1-0.1-0.2-0.2-0.3-0.3
			c0,0.1,0,0.1,0,0.2C33.3,22.2,33.3,22.3,33.4,22.3z M22.4,23.5C22.4,23.5,22.4,23.5,22.4,23.5C22.4,23.4,22.4,23.4,22.4,23.5
			C22.4,23.4,22.4,23.4,22.4,23.5C22.4,23.4,22.4,23.4,22.4,23.5z M22.3,23.4C22.3,23.5,22.3,23.3,22.3,23.4z M22.1,23.4
			C22.1,23.4,22.2,23.4,22.1,23.4C22.2,23.3,22.2,23.3,22.1,23.4C22.1,23.3,22.1,23.3,22.1,23.4C22.1,23.3,22.1,23.3,22.1,23.4z
			 M22,23.2c-0.1,0-0.3-0.2-0.3-0.1C21.8,23.2,21.9,23.3,22,23.2z M32.9,21.7c-0.1-0.3-0.2-0.2-0.3-0.3c-0.1,0.2,0.2,0.2,0.2,0.4
			c0.1,0,0.2,0.2,0.3,0c0-0.1-0.1,0-0.2,0c0-0.1-0.1-0.1,0-0.1C32.8,21.7,32.8,21.7,32.9,21.7z M29.2,21.1
			C29.2,21.2,29.2,21.1,29.2,21.1z M31.9,20.5C31.9,20.6,31.9,20.5,31.9,20.5z M19,22c-0.1,0-0.2-0.2-0.3-0.1c0,0,0,0,0,0.1
			C18.9,22,19,22.1,19,22z M32,20.4c0,0,0-0.3-0.1-0.2C31.8,20.2,31.9,20.5,32,20.4z M31.6,19.9C31.6,19.9,31.6,19.9,31.6,19.9
			C31.7,19.9,31.7,19.9,31.6,19.9C31.6,19.9,31.6,19.9,31.6,19.9C31.6,19.9,31.6,19.9,31.6,19.9z M28.7,20.2
			C28.7,20.2,28.7,20.2,28.7,20.2z M19.5,21.9C19.4,22,19.7,21.9,19.5,21.9c-0.1-0.1-0.3-0.2-0.6-0.2c-0.1-0.2-0.3-0.2-0.4-0.2
			C18.7,21.7,19.1,21.8,19.5,21.9z M18.4,21.3C18.2,21.3,18.4,21.5,18.4,21.3z M18.1,21.4c0-0.1-0.1-0.1-0.2-0.1
			C17.9,21.4,18,21.3,18.1,21.4z M18,21c0,0.2,0.2,0.1,0.3,0.2c0.5,0,1,0.3,1.4,0.6c0.1,0,0.1,0,0.2,0c0.5,0.4,1.3,0.5,1.8,1
			c1.2,0.3,1.9,1,3,1.4c0-0.1,0.1-0.2,0.2-0.2c0.1,0.2,0.2,0.3,0.3,0.4c0.5,0,0.7,0.5,1.2,0.5c-0.1-0.2,0-0.6,0.2-0.4
			c0,0.2-0.1,0.3,0,0.5c0.4,0,0.6,0.1,0.9,0.2c0-0.2,0-0.4,0.1-0.6c-0.5-0.3-1.2-0.4-1.7-0.8c-0.8-0.1-1.4-0.6-2.2-0.8
			c-0.7-0.5-1.7-0.6-2.4-1.1c-0.6-0.2-1.2-0.4-1.8-0.7c-0.2,0.1-0.3-0.1-0.4-0.1c-0.2,0.2-0.3-0.1-0.6,0c0-0.1,0-0.1-0.1-0.1
			C18.2,21,18.1,21,18,21z M28.3,19.8c0.1,0,0.2,0.2,0.2,0.1c-0.1-0.1-0.1-0.2-0.2-0.3C28.2,19.7,28.3,19.7,28.3,19.8z M18.9,20.8
			C18.9,21,18.9,20.7,18.9,20.8z M21.1,20.4C21,20.4,21,20.4,21.1,20.4C21,20.4,21.1,20.4,21.1,20.4z M18.6,20.7
			C18.5,20.7,18.5,20.7,18.6,20.7C18.5,20.7,18.6,20.7,18.6,20.7z M23.7,20c0.1,0,0.3,0,0.3-0.1C23.9,20,23.6,19.9,23.7,20z
			 M29.1,21.2c-0.5-0.7-1-1.4-1.6-1.9c-0.4-0.1-0.7,0.2-1.2,0.2c-1.5,0.5-3.2,0.9-4.9,1.1c-0.5,0.2-1.4,0.2-1.7,0.5
			c0.2,0.1,0.4,0.2,0.6,0.3c0.5-0.1,0.7,0.2,1.1,0.2c0.3,0.2,0.7,0.4,1.1,0.5c0,0,0,0.1,0,0.1c0.1,0,0.2,0,0.3,0
			c0.1,0.1,0.2,0.1,0.3,0.2c0.5,0.1,0.8,0.4,1.3,0.6c1,0.2,1.7,0.8,2.6,1c0.2,0.2,0.6,0.2,0.8,0.5c0.3,0.1,0.6,0.2,0.8,0.4
			c0.9,0.2,1.5,0.7,2.3,0.9c0,0.2,0.2,0,0.2,0.2c1.1,0.3,2.1,0.8,3.2,1.2c-0.3-0.4-0.7-0.8-1-1.2c-0.2-0.2-0.3-0.5-0.6-0.6
			c-0.1-0.3-0.4-0.3-0.5-0.7c0,0-0.1,0-0.1,0c-0.2-0.4-0.7-0.6-0.8-1.1c-0.4-0.2-0.6-0.8-1-1c-0.2-0.3-0.4-0.4-0.5-0.8
			c-0.3,0-0.3-0.4-0.5-0.5c0,0,0.1,0,0.1-0.1C29.2,21.2,29.2,21.2,29.1,21.2z M20.4,20.2c0,0,0.2,0,0.2-0.1
			C20.6,20.1,20.4,20.1,20.4,20.2z M21.4,20c-0.1,0-0.3,0-0.3,0.1C21.2,20,21.3,20.1,21.4,20z M25.1,19.5c0,0,0.1,0,0.1,0
			c0,0,0,0,0-0.1C25.2,19.4,25.1,19.4,25.1,19.5C25.1,19.4,25.1,19.4,25.1,19.5z M25.6,19.2c-0.1,0-0.2,0-0.2,0.1
			C25.5,19.2,25.7,19.3,25.6,19.2z M16,20C15.9,20.1,16.1,19.9,16,20z M30.3,18.2C30.4,18.5,30.3,17.9,30.3,18.2
			C30.3,18.1,30.3,18.1,30.3,18.2z M16.2,19.9C16.2,19.9,16.1,19.9,16.2,19.9C16.2,19.9,16.2,19.9,16.2,19.9z M16.5,19.8
			c0,0,0.1,0,0.1,0C16.6,19.8,16.6,19.7,16.5,19.8C16.5,19.7,16.5,19.7,16.5,19.8C16.5,19.7,16.5,19.8,16.5,19.8z M18,19.3
			C18,19.3,17.9,19.3,18,19.3C18,19.3,18,19.3,18,19.3z M17.5,19.1C17.6,19.3,17.5,19,17.5,19.1z M18,19C18,19,17.9,19,18,19
			C18,19,18,19,18,19z M29.8,16.9c0.2,0.1,0.3-0.2,0.4-0.3c-0.1,0-0.3,0.1-0.4,0c0.2-0.1,0.5-0.1,0.6-0.3c0,0-0.1,0-0.1-0.1
			c-0.2,0.2-0.7,0.2-0.8,0.4C29.9,16.5,30,16.8,29.8,16.9z M28.8,16.5c0.3,0.4,0.9,0,1.2-0.3C29.6,16,29.1,16.3,28.8,16.5z M27,16.2
			C27,16.2,27,16.2,27,16.2C27,16.3,27.1,16.3,27,16.2z M28.5,16.3c-0.2,0.1-0.3-0.1-0.6,0c0.4,0.3,1.1,0,1.4-0.3
			C29,15.7,28.8,16.2,28.5,16.3z M28.7,15.8c0,0-0.2,0-0.2,0.1C28.6,15.8,28.7,15.8,28.7,15.8z M27.2,16c0.1,0.1,0.2,0,0.3,0.2
			c0.2,0,0.3-0.1,0.4-0.2c0-0.1-0.1-0.1-0.2-0.2C27.4,15.9,27.2,15.9,27.2,16z M18.5,19.1c0,0.2,0,0.2-0.1,0.3
			c0-0.1-0.2-0.1-0.1-0.3c-0.2,0-0.3,0.2-0.5,0.2c-0.2,0.3-0.2,0.8-0.5,1.1c0.1-0.4,0.1-0.8,0.3-1c-0.3,0-0.4,0.2-0.7,0.3
			c-0.1,0.3-0.1,0.7-0.3,0.9c0-0.3,0.1-0.4,0.1-0.7c-0.2,0-0.2,0.2-0.4,0.2c0,0.2-0.1,0.3-0.2,0.4c0,0.1,0.1,0.2-0.1,0.2
			c0.1-0.1,0.1-0.2,0-0.4c-0.3,0.2-0.4,0.5-0.5,0.8c0.1-0.1,0.3-0.2,0.5-0.2c0.1-0.1,0-0.2,0.1-0.2c0.1,0.1-0.1,0.1,0,0.2
			c0.5-0.2,1.1-0.2,1.7-0.3c1.5-0.4,2.8-0.7,4.4-1c0.2-0.1,0.4-0.2,0.7-0.3c0.7-0.2,1.6-0.3,2.1-0.5c0.8-0.1,1.5-0.4,2-0.5
			c0,0.1,0.2,0.1,0.2,0.2c0.2-0.1,0.4,0.2,0.5,0.4c0.2,0,0.2,0.2,0.3,0.3c0.3,0.2,0.5,0.6,0.8,0.8c-0.1,0.1-0.2-0.1-0.2,0
			c0,0.1,0.1,0.1,0.2,0c0.8,1.1,1.8,1.9,2.7,2.9c0.2,0.4,0.6,0.4,0.8,0.8c0.6,0.5,1,1.1,1.5,1.7c0.2,0.1,0.4,0.3,0.4,0.6
			c0.1,0,0.1,0,0.2,0.1c0,0.1,0.1,0.1,0.1,0.3c0.5,0.3,0.8,0.9,1.2,1.4c0.1,0,0.1-0.1,0.1,0c-0.1,0.1,0.1,0.2,0.2,0.3
			c0.1-0.3-0.1-0.7,0.2-1c0,0.7-0.3,1.1,0.2,1.6c0-0.5-0.1-1,0-1.5c0.2,0.1,0.1,0.4,0.1,0.7c0,0.4,0,0.6,0.1,1
			c0.4,0.5,0.8,0.9,1.1,1.4c0.3,0.1,0.3,0.5,0.7,0.6c0-0.2-0.1-0.3-0.1-0.6c-0.2,0,0-0.5-0.2-0.5c0.1,0.2,0,0.4,0.1,0.6
			c-0.2,0-0.1-0.2-0.2-0.4c-0.1-0.5,0-0.7-0.2-1c0,0.2-0.1,0.4-0.1,0.5c-0.1-0.4,0-0.8-0.2-1.2c-0.2,0-0.2-0.4-0.4-0.5
			c0.1,0.2,0,0.6,0.1,1.1c0,0-0.1,0-0.1,0c0-0.5-0.2-1-0.1-1.3c-0.2-0.4-0.4-0.8-0.7-1.1c0,0.1,0.1,0.3-0.1,0.3
			c-0.1-0.3,0-0.8-0.3-0.8c0,0.5,0.1,0.9,0,1.4c-0.1-0.4-0.1-0.9-0.1-1.2c-0.2-0.4-0.3-0.8-0.7-1.1c-0.1,0.1,0,0.3-0.1,0.4
			c0-0.2-0.1-0.4,0-0.6c-1.2-1.2-2.3-2.6-3.3-4c-0.3-0.6-0.7-1.1-0.9-1.9c0,0-0.1-0.1-0.2-0.1c-0.1-0.7-0.3-1.1-0.4-1.8
			c-0.6,0-1.1-0.2-1.5-0.5c-1.3,0-2.1-0.6-3.2-0.8c-0.2,0.5-0.6,0.7-1,0.9c-0.6,0.4-1.2,0.8-2,1.1c-0.2,0.1-0.5,0.1-0.7,0.2
			c-0.2,0-0.4,0.1-0.5,0.2c-0.7,0.1-1.2,0.3-1.7,0.6c0,0.2,0,0.4-0.2,0.4c0-0.2,0.2-0.5,0.1-0.5C19,19,18.7,19,18.5,19.1z
			 M26.4,15.8c0.4,0.3,0.7,0,1.2-0.1c0-0.1,0-0.1,0-0.2C27.2,15.5,26.6,15.6,26.4,15.8z M24.9,15.6c0.1,0,0.2-0.1,0.2-0.2
			C25,15.4,24.8,15.4,24.9,15.6z M29.1,12.3c0.2,0,0.3-0.2,0.2-0.3C29.2,12.1,29.1,12.1,29.1,12.3z M26.4,11.9
			c0.1,0.1,0.2,0,0.2-0.1c-0.1,0,0-0.3-0.2-0.2C26.4,11.7,26.4,11.7,26.4,11.9z M29.2,10.9c-0.1-0.1,0-0.4-0.2-0.4
			C29.2,10.6,29.1,10.8,29.2,10.9z M28.3,9.6C28.3,9.6,28.2,9.6,28.3,9.6C28.2,9.6,28.3,9.6,28.3,9.6z M28,9.6c0,0,0.1,0,0.1,0
			c0,0,0,0,0-0.1C28.1,9.6,28.1,9.6,28,9.6C28,9.6,28,9.6,28,9.6z M26.9,11C26.9,11,26.8,11,26.9,11C26.8,11,26.8,11.1,26.9,11
			C26.8,11.1,26.9,11.1,26.9,11z M28.8,13c0.1,0.1,0.1-0.1,0.2-0.2c-0.1,0.5-0.4,0.8-0.3,1.5c-0.3,0.2-0.1,0.5-0.1,0.9
			c0.1,0.1,0.2,0.1,0.2,0.2c0.6,0,1.1,0.2,1.6,0.4c0,0.1,0.1,0.1,0.1,0.2c0.4-0.1,0.6,0.1,0.9,0.1c0,0.1,0,0.1-0.1,0.1
			c0.1,0.1,0.3,0.5,0.2,0.7c0.2,0.6,0.5,1.2,0.5,2c0.1,0-0.1-0.2,0.1-0.2c0.1,0.2,0,0.3,0,0.5c0.1,0,0.1-0.1,0.1-0.1
			c0.1,0,0,0.2,0,0.3c0,0,0-0.1,0.1-0.1c0.1,0.1-0.1,0.1,0,0.2c0.2,0,0.2,0.6,0.4,0.7c0,0-0.1,0.1-0.1,0.1c0.2,0.2,0.3,0.5,0.5,0.6
			c0,0.2,0.1,0.2,0.1,0.4c0.3,0.5,0.8,0.8,1.1,1.4c0.8,0.5,1.4,1.6,2.1,2.2c0.2,0.2,0.4,0.4,0.7,0.6c0.2,0.5,0.5,0.9,0.9,1.2
			c0.2,0.5,0.6,0.9,0.8,1.5c0,0,0.1,0.1,0.1,0.1c0,0.1,0.1,0.3,0.2,0.4c0,0.5,0.4,0.9,0.5,1.3c0.1,0.2,0,0.4,0.1,0.6
			c0.2,0.3,0.2,0.9,0.1,1.3c-0.1,0-0.1,0-0.2,0c0,0.1-0.1,0.1-0.1,0.2c-0.2-0.1-0.5,0.1-0.7,0.2c-0.9-0.2-1.3-0.9-1.8-1.6
			c-0.8-0.3-1.4-0.9-2.3-1c0-0.2-0.2-0.1-0.2-0.2c-0.4,0-0.6-0.4-1-0.4c-0.1-0.3-0.5-0.2-0.6-0.5c-1.3-0.4-2.5-1.1-3.8-1.6
			c0,0-0.1-0.1-0.1-0.1c-0.1,0-0.1,0-0.2,0c-0.1-0.1-0.2-0.2-0.4-0.2c-0.9-0.4-1.7-0.9-2.8-1.2c0,0,0-0.1,0-0.1
			c-0.5-0.1-0.8-0.5-1.3-0.5c0-0.2-0.3-0.1-0.3-0.3c-0.3,0-0.5-0.1-0.7-0.3c-0.1,0-0.1,0-0.2,0c-0.1-0.2-0.2-0.2-0.4-0.2
			c-0.6-0.3-1.1-0.7-1.8-0.8c-0.2-0.2-0.6-0.4-0.8-0.4c-0.1-0.1-0.2-0.2-0.4-0.1c-0.1-0.2-0.2-0.2-0.5-0.3c0,0,0-0.1,0-0.1
			c-0.1,0-0.1,0-0.2,0c-0.1,0-0.2-0.1-0.2-0.2c-0.3-0.1-0.7-0.2-0.9-0.4c-0.4,0-0.7,0.3-1,0.1c-0.1,0,0,0.1-0.1,0.1
			c-0.3-0.2-0.8,0-1.3,0c0-0.1,0-0.1,0-0.1c-0.1,0-0.1,0-0.2,0c0,0,0.1,0,0.1,0.1c-0.1,0-0.2,0.1-0.3,0c0-0.1,0.2-0.6-0.1-0.6
			c0.2-0.7,0.8-1.1,1.3-1.7c0.1-0.1,0,0.1,0.1,0.1c0.1-0.1-0.1-0.1-0.1-0.2c0.1,0,0.1-0.1,0.2-0.1c0.1,0.1-0.1,0-0.1,0.1
			c0.1-0.1,0.2-0.1,0.2-0.1c0-0.1-0.1,0.1-0.1,0c0.8-0.8,2.3-0.9,3.5-1.4c0.6-0.1,1.1-0.2,1.5-0.4c0.4-0.1,0.9-0.1,1.1-0.3
			c1-0.4,1.7-1,2.2-1.7c-0.1-0.2,0.1-0.3,0.1-0.5c0.2-0.1,0.4-0.2,0.6,0c0.4-0.1,1-0.2,1.5-0.2c-0.1,0.1-0.3,0.2-0.4,0.3
			c-0.2-0.1-0.5,0-0.6,0.2c0.3,0.2,0.7-0.2,1.2-0.2c0-0.1-0.1-0.1-0.1-0.2c0.2-0.1,0.4,0.1,0.6,0c0.1-0.4,0.3-0.7,0.2-1.2
			c0.2-0.2,0.2-0.5,0.3-0.8c0.3-0.4,0.5-1,0.9-1.4c0-0.4,0-0.8-0.1-1.1c-0.1-0.5-0.6-0.7-1.2-0.6c-0.3,0.2-0.7,0.3-0.9,0.6
			c0,0.7,0.5,1.6-0.7,1.5c-0.3-0.7-0.1-1.5,0-2.1c0.2,0,0.2-0.1,0.2-0.3c0.2-0.2,0.5-0.3,0.6-0.6c0.4-0.1,0.8-0.2,1.2-0.2
			c0.1,0.2,0.4,0.1,0.6,0.2c0.3,0.3,0.8,0.3,0.9,0.9c0.1,0,0.1,0.1,0.1,0.1c0.1,0.7,0.1,1.4-0.2,1.8c0,0.1,0,0.1,0,0.2
			C29.2,12.6,29,12.8,28.8,13"/>
	</g>
</g>
</svg>
