<?xml version="1.0" encoding="utf-8"?>
<!-- Generator: Adobe Illustrator 25.2.3, SVG Export Plug-In . SVG Version: 6.00 Build 0)  -->
<svg version="1.1" id="Capa_1" xmlns="http://www.w3.org/2000/svg" xmlns:xlink="http://www.w3.org/1999/xlink" x="0px" y="0px"
	 viewBox="0 0 61.3 63.3" style="enable-background:new 0 0 61.3 63.3;" xml:space="preserve">
<style type="text/css">
	.st0{clip-path:url(#SVGID_2_);}
	.st1{fill:#211915;}
	.st2{clip-path:url(#SVGID_4_);}
	.st3{fill-rule:evenodd;clip-rule:evenodd;fill:#1E3149;}
	.st4{clip-path:url(#SVGID_6_);}
	.st5{clip-path:url(#SVGID_8_);}
	.st6{fill:none;stroke:#231F1F;stroke-width:0.5326;stroke-linecap:round;stroke-linejoin:round;stroke-miterlimit:10;}
	.st7{clip-path:url(#SVGID_10_);}
	.st8{clip-path:url(#SVGID_12_);}
	.st9{clip-path:url(#SVGID_14_);}
	.st10{clip-path:url(#SVGID_16_);}
	.st11{clip-path:url(#SVGID_18_);}
	.st12{clip-path:url(#SVGID_20_);}
	.st13{clip-path:url(#SVGID_22_);}
	.st14{clip-path:url(#SVGID_24_);}
	.st15{clip-path:url(#SVGID_26_);}
	.st16{clip-path:url(#SVGID_28_);}
	.st17{clip-path:url(#SVGID_30_);}
	.st18{clip-path:url(#SVGID_32_);}
</style>
<g>
	<defs>
		<rect id="SVGID_25_" x="9.7" y="17.9" width="29.3" height="26.7"/>
	</defs>
	<clipPath id="SVGID_2_">
		<use xlink:href="#SVGID_25_"  style="overflow:visible;"/>
	</clipPath>
	<g class="st0">
		<g>
			<defs>
				
					<rect id="SVGID_27_" x="12.1" y="22.1" transform="matrix(0.6642 -0.7475 0.7475 0.6642 -14.2175 28.4611)" width="25" height="16"/>
			</defs>
			<clipPath id="SVGID_4_">
				<use xlink:href="#SVGID_27_"  style="overflow:visible;"/>
			</clipPath>
			<g class="st2">
				<g>
					<defs>
						
							<rect id="SVGID_29_" x="12.1" y="22.1" transform="matrix(0.6642 -0.7475 0.7475 0.6642 -14.2175 28.4611)" width="25" height="16"/>
					</defs>
					<clipPath id="SVGID_6_">
						<use xlink:href="#SVGID_29_"  style="overflow:visible;"/>
					</clipPath>
					<g class="st4">
						<g>
							<defs>
								
									<rect id="SVGID_31_" x="12.1" y="22.1" transform="matrix(0.6642 -0.7475 0.7475 0.6642 -14.2175 28.4611)" width="25" height="16"/>
							</defs>
							<clipPath id="SVGID_8_">
								<use xlink:href="#SVGID_31_"  style="overflow:visible;"/>
							</clipPath>
							<g class="st5">
								<path d="M31.7,22.7c0-0.6,0.2-1.3,0.7-1.8c0.1-0.2,0.1-0.4,0-0.6l-2-1.8c0,0,0,0,0,0c0,0,0,0,0,0c0,0,0,0,0,0c0,0,0,0,0,0
									c0,0,0,0,0,0c-0.1,0-0.1-0.1-0.2,0c0,0,0,0,0,0c0,0,0,0,0,0c0,0,0,0,0,0c0,0,0,0,0,0c0,0,0,0,0,0c0,0,0,0,0,0c0,0,0,0,0,0
									L10.6,33.7c0,0,0,0-0.1,0.1c-0.1,0.2-0.1,0.4,0,0.6l2,1.8c0.1,0.1,0.4,0.1,0.5,0c0.3-0.3,0.7-0.5,1.1-0.6
									c0.1,0,0.3-0.1,0.4-0.1l-0.9,1.1c-0.1,0.2-0.1,0.4,0,0.6l2,1.8c0.2,0.1,0.4,0.1,0.6,0c0.3-0.4,0.8-0.7,1.2-0.8
									c0,0.1-0.1,0.2-0.2,0.3c-0.1,0.3-0.4,0.5-0.6,0.7c0,0,0,0-0.1,0.1c-0.1,0.2-0.1,0.4,0,0.6l2,1.8c0.1,0.1,0.4,0.1,0.5,0
									l1.2-1c-0.1,0.5-0.3,1-0.7,1.4c-0.1,0.2-0.1,0.4,0,0.6l2,1.8c0.2,0.1,0.4,0.1,0.6,0l16.1-18.1c0.1-0.2,0.1-0.4,0-0.6l-2-1.8
									c0,0,0,0,0,0l0,0c0,0,0,0,0,0c0,0,0,0,0,0c0,0,0,0,0,0c-0.1,0-0.1-0.1-0.2,0c0,0,0,0,0,0c0,0,0,0,0,0c0,0,0,0,0,0
									c0,0,0,0,0,0c0,0,0,0,0,0c0,0,0,0,0,0c0,0,0,0,0,0c-0.5,0.4-1.2,0.7-1.9,0.7c-0.7,0-1.3-0.1-1.8-0.5
									C31.9,23.7,31.7,23.2,31.7,22.7z M14,34.8c-0.4,0.1-0.8,0.3-1.1,0.5l-1.4-1.3l3.6-2.9l0.3,0.3c0.3,0.3,0.9-0.1,0.6-0.5
									c0,0,0,0-0.1-0.1l-0.2-0.2l5-4l6-4.8l-9.2,10.3L17.2,32c-0.3-0.3-0.9,0.1-0.6,0.5c0,0,0,0,0.1,0.1l0.4,0.3l-1.6,1.8
									C15,34.7,14.5,34.7,14,34.8z M18.1,38.9c0.1-0.3,0.2-0.5,0.3-0.8c0,0,0,0,0,0c0,0,0.1,0,0.1,0c0,0,0,0,0.1,0c0,0,0,0,0.1,0
									c0,0,0,0,0.1,0c0,0,0,0,0.1,0c0,0,0.1,0,0.1,0c0,0,0,0,0,0c0.2,0.1,0.4,0.2,0.6,0.3c0,0,0,0,0,0c0,0,0.1,0,0.1,0.1
									c0,0,0,0,0,0c0,0,0.1,0.1,0.1,0.1h0c0,0,0.1,0.1,0.1,0.1c0,0,0,0,0,0c0,0,0,0,0.1,0.1c0,0,0,0,0,0c0,0,0,0,0.1,0.1
									c0,0,0,0,0,0c0.1,0.1,0.1,0.1,0.1,0.2c0,0,0,0,0,0c0,0,0,0.1,0.1,0.1c0,0,0,0,0,0c0,0,0,0,0,0.1c0,0,0,0,0,0.1c0,0,0,0,0,0
									c0,0,0,0.1,0,0.1c0,0,0,0,0,0c0,0,0,0.1,0,0.1c0,0,0,0,0,0c0,0,0,0.1,0,0.1c0,0,0,0,0,0l-1.4,1.1l-1.4-1.3
									C17.8,39.3,18,39.1,18.1,38.9z M32,24.9L32,24.9c0.7,0.6,1.5,0.8,2.3,0.8c0,0,0.1,0,0.1,0c0,0,0,0,0,0c0,0,0.1,0,0.1,0
									c0,0,0,0,0.1,0c0,0,0.1,0,0.1,0c0,0,0,0,0.1,0c0,0,0.1,0,0.1,0c0,0,0,0,0.1,0c0,0,0.1,0,0.1,0c0,0,0,0,0,0
									c0,0,0.1,0,0.1-0.1c0,0,0,0,0,0c0,0,0.1,0,0.1,0c0,0,0,0,0,0c0,0,0.1,0,0.1,0c0,0,0,0,0.1,0c0,0,0.1,0,0.1,0c0,0,0,0,0.1,0
									c0,0,0.1,0,0.1-0.1c0,0,0,0,0,0c0,0,0.1,0,0.1-0.1c0,0,0,0,0,0C36,25,36,25,36,25c0,0,0,0,0,0c0,0,0.1-0.1,0.1-0.1
									c0,0,0,0,0,0c0,0,0,0,0.1,0l1.4,1.3L22.2,43.6l-1.4-1.3c0.4-0.6,0.7-1.4,0.6-2.1c0-0.1,0-0.3,0-0.4c0,0,0,0,0,0v0
									c0,0,0-0.1,0-0.1c0,0,0,0,0-0.1c0,0,0-0.1,0-0.1c0,0,0,0,0-0.1c0,0,0-0.1,0-0.1c0,0,0,0,0-0.1c0,0,0-0.1,0-0.1
									c0,0,0-0.1,0-0.1c0,0,0-0.1,0-0.1c0,0,0,0,0-0.1c0,0,0,0,0-0.1c0,0,0,0,0-0.1c0,0,0-0.1,0-0.1c0,0,0,0,0,0v0c0,0,0,0,0,0
									c0,0,0-0.1,0-0.1c0,0,0,0,0,0c-0.1-0.1-0.1-0.2-0.2-0.3c0,0,0,0,0,0c0,0,0,0,0-0.1c0,0,0,0-0.1-0.1c0,0,0,0,0-0.1
									c0,0,0,0-0.1-0.1c0,0,0,0,0,0c0,0-0.1-0.1-0.1-0.1c0,0,0,0,0,0c0,0,0,0,0,0c0,0-0.1-0.1-0.1-0.1c0,0,0,0-0.1-0.1s0,0-0.1,0
									c0,0-0.1,0-0.1-0.1c0,0,0,0,0,0c0,0-0.1,0-0.1-0.1c0,0,0,0,0,0c0,0-0.1,0-0.1-0.1c0,0,0,0,0,0c0,0-0.1,0-0.1-0.1
									c0,0,0,0,0,0c0,0-0.1,0-0.1-0.1c0,0,0,0,0,0c0,0-0.1,0-0.1,0c0,0,0,0,0,0c0,0,0,0,0,0c0,0-0.1,0-0.1,0c0,0,0,0,0,0
									c0,0-0.1,0-0.1,0c0,0,0,0,0,0c0,0-0.1,0-0.1,0c0,0,0,0,0,0c0,0-0.1,0-0.1,0c0,0,0,0,0,0c0,0-0.1,0-0.1,0c0,0,0,0,0,0
									c0,0-0.1,0-0.1,0c0,0,0,0-0.1,0c0,0-0.1,0-0.1,0c0,0,0,0-0.1,0c0,0-0.1,0-0.1,0c0,0,0,0,0,0c0,0,0,0,0,0c0,0,0,0-0.1,0
									c-0.7,0.1-1.4,0.4-2,0.9l-1.4-1.3l1.3-1.5l0.2-0.2l6.3-7.1l7.8-8.7l1.4,1.3c-0.4,0.6-0.6,1.4-0.6,2.1
									C31,23.5,31.3,24.3,32,24.9z M22.5,36.7l0.6,0.5c0,0,0,0,0.1,0.1c0.3,0.4-0.2,0.9-0.6,0.5L22,37.3c0,0,0,0-0.1-0.1
									C21.7,36.9,22.2,36.4,22.5,36.7z M24.3,38.3l0.6,0.5c0,0,0,0,0.1,0.1c0.3,0.4-0.2,0.9-0.6,0.5l-0.6-0.5c0,0,0,0-0.1-0.1
									C23.5,38.5,24,38,24.3,38.3z M20.7,35.1l0.6,0.5c0,0,0,0,0.1,0.1c0.3,0.4-0.2,0.9-0.6,0.5l-0.6-0.5c0,0,0,0-0.1-0.1
									C19.9,35.3,20.4,34.8,20.7,35.1z M19,33.5l0.6,0.5c0,0,0,0,0.1,0.1c0.3,0.4-0.2,0.9-0.6,0.5l-0.6-0.5c0,0,0,0-0.1-0.1
									C18.1,33.7,18.6,33.2,19,33.5z M21,32.8c-0.2-0.1-0.2-0.4,0-0.6l3.4-3.8c0.1-0.2,0.4-0.2,0.6,0c0.2,0.1,0.2,0.4,0,0.6
									l-3.4,3.8C21.4,32.9,21.1,32.9,21,32.8z M31.6,26.8c0.2,0.1,0.2,0.4,0,0.6l-7.1,8c-0.1,0.2-0.4,0.2-0.6,0
									c-0.2-0.1-0.2-0.4,0-0.6l7.1-8C31.2,26.7,31.4,26.7,31.6,26.8z M30.1,25.5c0.2,0.1,0.2,0.4,0,0.6l-7.1,8
									c-0.1,0.2-0.4,0.2-0.6,0c-0.2-0.2-0.2-0.4,0-0.6l7.1-8C29.7,25.4,29.9,25.4,30.1,25.5z M33.1,28.1c0.2,0.1,0.2,0.4,0,0.6
									l-7.1,8c-0.1,0.2-0.4,0.2-0.6,0c-0.2-0.1-0.2-0.4,0-0.6l7.1-8C32.7,28,32.9,28,33.1,28.1z"/>
							</g>
						</g>
					</g>
				</g>
			</g>
		</g>
	</g>
</g>
</svg>
